<?xml version="1.0" encoding="iso-8859-1"?>
<!-- Generator: Adobe Illustrator 18.0.0, SVG Export Plug-In . SVG Version: 6.00 Build 0)  -->
<!DOCTYPE svg PUBLIC "-//W3C//DTD SVG 1.1//EN" "http://www.w3.org/Graphics/SVG/1.1/DTD/svg11.dtd">
<svg version="1.1" id="Capa_1" xmlns="http://www.w3.org/2000/svg" xmlns:xlink="http://www.w3.org/1999/xlink" x="0px" y="0px"
	 viewBox="0 0 115.507 91" style="enable-background:new 0 0 115.507 91;" xml:space="preserve">
<g>
	<g>
		<path style="fill:#FFFFFF;" d="M2.815,77.915c0-0.914-0.185-1.309-0.756-1.309c-0.642,0-0.792,0.642-0.792,2.418
			c0,1.901,0.264,2.243,0.809,2.243c0.458,0,0.792-0.238,0.792-1.591h1.266c0,1.354-0.334,2.524-1.997,2.524
			c-1.9,0-2.137-1.355-2.137-3.263c0-1.909,0.237-3.263,2.137-3.263c1.812,0,1.944,1.328,1.944,2.242H2.815z"/>
		<path style="fill:#FFFFFF;" d="M6.951,75.673c1.9,0,2.138,1.354,2.138,3.263c0,1.908-0.238,3.263-2.138,3.263
			s-2.137-1.355-2.137-3.263C4.814,77.026,5.051,75.673,6.951,75.673z M6.951,81.267c0.748,0,0.871-0.642,0.871-2.331
			c0-1.68-0.123-2.331-0.871-2.331s-0.871,0.65-0.871,2.331C6.08,80.625,6.203,81.267,6.951,81.267z"/>
		<path style="fill:#FFFFFF;" d="M11.387,75.796l1.531,4.3h0.017v-4.3h1.161v6.28h-1.442l-1.548-4.398h-0.018v4.398H9.927v-6.28
			H11.387z"/>
		<path style="fill:#FFFFFF;" d="M16.087,80.115V80.3c0,0.589,0.167,0.967,0.835,0.967c0.387,0,0.757-0.246,0.757-0.774
			c0-0.572-0.291-0.784-1.126-1.073c-1.126-0.388-1.645-0.854-1.645-1.901c0-1.222,0.748-1.846,1.944-1.846
			c1.126,0,1.944,0.483,1.944,1.689v0.175h-1.214c0-0.589-0.202-0.931-0.685-0.931c-0.572,0-0.721,0.36-0.721,0.729
			c0,0.387,0.114,0.625,0.65,0.854l0.977,0.423c0.95,0.413,1.196,0.897,1.196,1.662c0,1.328-0.809,1.927-2.182,1.927
			c-1.434,0-1.997-0.669-1.997-1.829v-0.255H16.087z"/>
		<path style="fill:#FFFFFF;" d="M23.4,75.796v1.037h-1.372v5.243H20.76v-5.243h-1.372v-1.037H23.4z"/>
		<path style="fill:#FFFFFF;" d="M24.035,75.796h2.34c1.038,0,1.671,0.544,1.671,1.617c0,0.837-0.334,1.399-1.046,1.548v0.017
			c0.862,0.115,0.994,0.59,1.011,1.918c0.009,0.66,0.044,1.003,0.281,1.126v0.053H26.92c-0.123-0.176-0.149-0.414-0.158-0.66
			l-0.035-1.205c-0.017-0.493-0.237-0.791-0.748-0.791h-0.677v2.656h-1.267V75.796z M25.302,78.539h0.527
			c0.607,0,0.95-0.264,0.95-0.941c0-0.58-0.308-0.871-0.88-0.871h-0.598V78.539z"/>
		<path style="fill:#FFFFFF;" d="M30.29,75.796v4.38c0,0.625,0.15,1.09,0.739,1.09s0.738-0.466,0.738-1.09v-4.38h1.267v4.38
			c0,1.6-0.976,2.023-2.005,2.023c-1.029,0-2.005-0.344-2.005-2.023v-4.38H30.29z"/>
		<path style="fill:#FFFFFF;" d="M36.608,77.915c0-0.914-0.185-1.309-0.756-1.309c-0.642,0-0.792,0.642-0.792,2.418
			c0,1.901,0.264,2.243,0.809,2.243c0.458,0,0.792-0.238,0.792-1.591h1.266c0,1.354-0.334,2.524-1.997,2.524
			c-1.9,0-2.137-1.355-2.137-3.263c0-1.909,0.237-3.263,2.137-3.263c1.812,0,1.944,1.328,1.944,2.242H36.608z"/>
		<path style="fill:#FFFFFF;" d="M41.422,77.915c0-0.914-0.185-1.309-0.756-1.309c-0.642,0-0.792,0.642-0.792,2.418
			c0,1.901,0.264,2.243,0.809,2.243c0.458,0,0.792-0.238,0.792-1.591h1.266c0,1.354-0.334,2.524-1.997,2.524
			c-1.9,0-2.137-1.355-2.137-3.263c0-1.909,0.237-3.263,2.137-3.263c1.812,0,1.944,1.328,1.944,2.242H41.422z"/>
		<path style="fill:#FFFFFF;" d="M43.614,82.076v-6.28h1.267v6.28H43.614z"/>
		<path style="fill:#FFFFFF;" d="M47.917,75.673c1.9,0,2.138,1.354,2.138,3.263c0,1.908-0.238,3.263-2.138,3.263
			s-2.137-1.355-2.137-3.263C45.78,77.026,46.017,75.673,47.917,75.673z M47.917,81.267c0.748,0,0.871-0.642,0.871-2.331
			c0-1.68-0.123-2.331-0.871-2.331c-0.748,0-0.871,0.65-0.871,2.331C47.046,80.625,47.169,81.267,47.917,81.267z"/>
		<path style="fill:#FFFFFF;" d="M52.353,75.796l1.531,4.3h0.017v-4.3h1.161v6.28h-1.442l-1.548-4.398h-0.018v4.398h-1.161v-6.28
			H52.353z"/>
		<path style="fill:#FFFFFF;" d="M59.542,75.796v1.037H57.3v1.478h2.111v1.037H57.3v1.689h2.331v1.039h-3.598v-6.28H59.542z"/>
		<path style="fill:#FFFFFF;" d="M61.375,80.115V80.3c0,0.589,0.167,0.967,0.835,0.967c0.387,0,0.757-0.246,0.757-0.774
			c0-0.572-0.291-0.784-1.126-1.073c-1.126-0.388-1.645-0.854-1.645-1.901c0-1.222,0.748-1.846,1.944-1.846
			c1.126,0,1.944,0.483,1.944,1.689v0.175H62.87c0-0.589-0.203-0.931-0.686-0.931c-0.572,0-0.722,0.36-0.722,0.729
			c0,0.387,0.115,0.625,0.651,0.854l0.977,0.423c0.95,0.413,1.196,0.897,1.196,1.662c0,1.328-0.809,1.927-2.182,1.927
			c-1.434,0-1.997-0.669-1.997-1.829v-0.255H61.375z"/>
		<path style="fill:#FFFFFF;" d="M68.221,75.796l0.827,2.427h0.017l0.88-2.427h1.372l-1.627,3.807v2.472h-1.266v-2.472l-1.627-3.807
			H68.221z"/>
		<path style="fill:#FFFFFF;" d="M74.074,75.796h2.217c1.284,0,1.724,0.941,1.724,1.882c0,1.301-0.801,1.891-1.997,1.891h-0.677
			v2.507h-1.267V75.796z M75.341,78.637h0.563c0.501,0,0.844-0.299,0.844-0.941c0-0.616-0.246-0.968-0.88-0.968h-0.527V78.637z"/>
		<path style="fill:#FFFFFF;" d="M78.73,75.796h2.34c1.038,0,1.671,0.544,1.671,1.617c0,0.837-0.334,1.399-1.046,1.548v0.017
			c0.862,0.115,0.994,0.59,1.011,1.918c0.009,0.66,0.044,1.003,0.281,1.126v0.053h-1.372c-0.123-0.176-0.149-0.414-0.158-0.66
			l-0.035-1.205c-0.017-0.493-0.237-0.791-0.748-0.791h-0.677v2.656H78.73V75.796z M79.997,78.539h0.527
			c0.607,0,0.95-0.264,0.95-0.941c0-0.58-0.308-0.871-0.88-0.871h-0.598V78.539z"/>
		<path style="fill:#FFFFFF;" d="M85.717,75.673c1.9,0,2.138,1.354,2.138,3.263c0,1.908-0.238,3.263-2.138,3.263
			s-2.137-1.355-2.137-3.263C83.58,77.026,83.817,75.673,85.717,75.673z M85.717,81.267c0.748,0,0.871-0.642,0.871-2.331
			c0-1.68-0.123-2.331-0.871-2.331c-0.748,0-0.871,0.65-0.871,2.331C84.846,80.625,84.969,81.267,85.717,81.267z"/>
		<path style="fill:#FFFFFF;" d="M89.493,75.796l0.827,2.427h0.017l0.88-2.427h1.372l-1.627,3.807v2.472h-1.266v-2.472l-1.627-3.807
			H89.493z"/>
		<path style="fill:#FFFFFF;" d="M96.656,75.796v1.037h-2.242v1.478h2.111v1.037h-2.111v1.689h2.331v1.039h-3.598v-6.28H96.656z"/>
		<path style="fill:#FFFFFF;" d="M100.15,77.915c0-0.914-0.185-1.309-0.756-1.309c-0.642,0-0.792,0.642-0.792,2.418
			c0,1.901,0.264,2.243,0.809,2.243c0.458,0,0.792-0.238,0.792-1.591h1.266c0,1.354-0.334,2.524-1.997,2.524
			c-1.9,0-2.137-1.355-2.137-3.263c0-1.909,0.237-3.263,2.137-3.263c1.812,0,1.944,1.328,1.944,2.242H100.15z"/>
		<path style="fill:#FFFFFF;" d="M105.959,75.796v1.037h-1.372v5.243h-1.267v-5.243h-1.372v-1.037H105.959z"/>
		<path style="fill:#FFFFFF;" d="M108.599,75.673c1.9,0,2.138,1.354,2.138,3.263c0,1.908-0.238,3.263-2.138,3.263
			s-2.137-1.355-2.137-3.263C106.462,77.026,106.699,75.673,108.599,75.673z M108.599,81.267c0.748,0,0.871-0.642,0.871-2.331
			c0-1.68-0.123-2.331-0.871-2.331s-0.871,0.65-0.871,2.331C107.728,80.625,107.852,81.267,108.599,81.267z"/>
		<path style="fill:#FFFFFF;" d="M112.596,80.115V80.3c0,0.589,0.167,0.967,0.835,0.967c0.387,0,0.757-0.246,0.757-0.774
			c0-0.572-0.291-0.784-1.126-1.073c-1.126-0.388-1.645-0.854-1.645-1.901c0-1.222,0.748-1.846,1.944-1.846
			c1.126,0,1.944,0.483,1.944,1.689v0.175h-1.213c0-0.589-0.203-0.931-0.686-0.931c-0.572,0-0.722,0.36-0.722,0.729
			c0,0.387,0.115,0.625,0.651,0.854l0.977,0.423c0.95,0.413,1.196,0.897,1.196,1.662c0,1.328-0.809,1.927-2.182,1.927
			c-1.434,0-1.997-0.669-1.997-1.829v-0.255H112.596z"/>
		<path style="fill:#FFFFFF;" d="M22.836,90.877v-6.28h1.267v6.28H22.836z"/>
		<path style="fill:#FFFFFF;" d="M26.593,84.597l1.531,4.3h0.017v-4.3h1.161v6.28H27.86l-1.548-4.398h-0.018v4.398h-1.161v-6.28
			H26.593z"/>
		<path style="fill:#FFFFFF;" d="M30.299,84.597h1.882l0.897,4.432h0.017l0.906-4.432h1.874v6.28h-1.161v-5.014h-0.017l-1.117,5.014
			h-0.986l-1.117-5.014H31.46v5.014h-1.161V84.597z"/>
		<path style="fill:#FFFFFF;" d="M38.879,84.474c1.9,0,2.138,1.354,2.138,3.263c0,1.908-0.238,3.263-2.138,3.263
			s-2.137-1.355-2.137-3.263C36.741,85.827,36.979,84.474,38.879,84.474z M38.879,90.067c0.748,0,0.871-0.642,0.871-2.331
			c0-1.68-0.123-2.331-0.871-2.331c-0.748,0-0.871,0.65-0.871,2.331C38.008,89.426,38.131,90.067,38.879,90.067z"/>
		<path style="fill:#FFFFFF;" d="M41.855,84.597h2.12c1.038,0,1.786,0.387,1.786,1.591c0,0.678-0.325,1.196-0.95,1.372v0.017
			c0.695,0.097,1.143,0.625,1.143,1.461c0,0.984-0.483,1.838-1.962,1.838h-2.137V84.597z M43.122,87.174h0.36
			c0.695,0,1.011-0.238,1.011-0.827c0-0.599-0.29-0.819-0.915-0.819h-0.457V87.174z M43.122,89.944h0.492
			c0.607,0,1.021-0.219,1.021-0.95s-0.413-0.941-0.968-0.941h-0.545V89.944z"/>
		<path style="fill:#FFFFFF;" d="M46.898,90.877v-6.28h1.267v6.28H46.898z"/>
		<path style="fill:#FFFFFF;" d="M49.194,90.877v-6.28h1.267v5.241h2.242v1.039H49.194z"/>
		<path style="fill:#FFFFFF;" d="M53.419,90.877v-6.28h1.267v6.28H53.419z"/>
		<path style="fill:#FFFFFF;" d="M56.939,84.597h1.566l1.662,6.28h-1.319l-0.29-1.328h-1.672l-0.29,1.328h-1.319L56.939,84.597z
			 M57.106,88.51h1.232l-0.607-2.823h-0.017L57.106,88.51z"/>
		<path style="fill:#FFFFFF;" d="M60.698,84.597h2.34c1.038,0,1.671,0.544,1.671,1.617c0,0.837-0.334,1.399-1.046,1.548v0.017
			c0.862,0.115,0.994,0.59,1.011,1.918c0.009,0.66,0.044,1.003,0.281,1.126v0.053h-1.372c-0.123-0.176-0.149-0.414-0.158-0.66
			l-0.035-1.205c-0.017-0.493-0.237-0.791-0.748-0.791h-0.677v2.656h-1.267V84.597z M61.965,87.34h0.527
			c0.607,0,0.95-0.264,0.95-0.941c0-0.58-0.308-0.871-0.88-0.871h-0.598V87.34z"/>
		<path style="fill:#FFFFFF;" d="M65.741,90.877v-6.28h1.267v6.28H65.741z"/>
		<path style="fill:#FFFFFF;" d="M70.043,84.474c1.9,0,2.138,1.354,2.138,3.263c0,1.908-0.238,3.263-2.138,3.263
			c-1.9,0-2.137-1.355-2.137-3.263C67.906,85.827,68.143,84.474,70.043,84.474z M70.043,90.067c0.748,0,0.871-0.642,0.871-2.331
			c0-1.68-0.123-2.331-0.871-2.331c-0.748,0-0.871,0.65-0.871,2.331C69.172,89.426,69.295,90.067,70.043,90.067z"/>
		<path style="fill:#FFFFFF;" d="M74.04,88.916v0.185c0,0.589,0.167,0.967,0.835,0.967c0.387,0,0.757-0.246,0.757-0.774
			c0-0.572-0.291-0.784-1.126-1.073c-1.126-0.388-1.645-0.854-1.645-1.901c0-1.222,0.748-1.846,1.944-1.846
			c1.126,0,1.944,0.483,1.944,1.689v0.175h-1.214c0-0.589-0.202-0.931-0.685-0.931c-0.572,0-0.721,0.36-0.721,0.729
			c0,0.387,0.114,0.625,0.65,0.854l0.977,0.423c0.95,0.413,1.196,0.897,1.196,1.662c0,1.328-0.809,1.927-2.182,1.927
			c-1.434,0-1.997-0.669-1.997-1.829v-0.255H74.04z"/>
		<path style="fill:#FFFFFF;" d="M80.895,88.916v0.185c0,0.589,0.167,0.967,0.835,0.967c0.387,0,0.757-0.246,0.757-0.774
			c0-0.572-0.291-0.784-1.126-1.073c-1.126-0.388-1.645-0.854-1.645-1.901c0-1.222,0.748-1.846,1.944-1.846
			c1.126,0,1.944,0.483,1.944,1.689v0.175H82.39c0-0.589-0.202-0.931-0.685-0.931c-0.572,0-0.721,0.36-0.721,0.729
			c0,0.387,0.114,0.625,0.65,0.854l0.977,0.423c0.95,0.413,1.196,0.897,1.196,1.662c0,1.328-0.809,1.927-2.182,1.927
			c-1.434,0-1.997-0.669-1.997-1.829v-0.255H80.895z"/>
		<path style="fill:#FFFFFF;" d="M85.726,89.505v1.372h-1.161v-1.372H85.726z"/>
		<path style="fill:#FFFFFF;" d="M87.953,84.597h1.566l1.662,6.28h-1.319l-0.29-1.328H87.9l-0.29,1.328H86.29L87.953,84.597z
			 M88.12,88.51h1.232l-0.607-2.823h-0.017L88.12,88.51z"/>
		<path style="fill:#FFFFFF;" d="M92.908,89.505v1.372h-1.161v-1.372H92.908z"/>
	</g>
	<path style="fill:#FFFFFF;" d="M93.108,18.876H64.264v2.786h28.844v41.554H62.914V0H62.16h-2.031H36.541h-2.786v2.786v25.323
		h-9.614h-2.786v2.786v35.107h0.548h2.238h25.875h2.786h7.327h2.786h30.193h1.97h0.816v-44.34v-2.786H93.108z M24.141,63.216V30.895
		h25.875v32.321H24.141z M52.802,63.216V28.109h-0.12h-2.666H36.541V2.786h23.588v60.43H52.802z"/>
</g>
<g>
</g>
<g>
</g>
<g>
</g>
<g>
</g>
<g>
</g>
<g>
</g>
</svg>
