<?xml version="1.0" encoding="iso-8859-1"?>
<!-- Generator: Adobe Illustrator 18.0.0, SVG Export Plug-In . SVG Version: 6.00 Build 0)  -->
<!DOCTYPE svg PUBLIC "-//W3C//DTD SVG 1.1//EN" "http://www.w3.org/Graphics/SVG/1.1/DTD/svg11.dtd">
<svg version="1.1" id="Capa_1" xmlns="http://www.w3.org/2000/svg" xmlns:xlink="http://www.w3.org/1999/xlink" x="0px" y="0px"
	 viewBox="0 0 386.884 127.89" style="enable-background:new 0 0 386.884 127.89;" xml:space="preserve">
<g>
	<circle style="fill:none;stroke:#E6B54A;stroke-width:1.7604;stroke-miterlimit:10;" cx="49.292" cy="67.272" r="48.412"/>
	<circle style="fill:none;stroke:#E6B54A;stroke-width:1.7604;stroke-miterlimit:10;" cx="49.292" cy="67.272" r="39.61"/>
	<path style="fill:#FFFFFF;" d="M67.572,43.508l0.386,11.847H66.31c-0.328-2.594-1.058-4.738-2.191-6.431
		c-1.134-1.695-2.32-2.751-3.558-3.173c-1.239-0.42-3.33-0.63-6.274-0.63h-9.288v20.154h4.451c2.874,0,4.785-0.484,5.731-1.454
		c0.947-0.97,1.42-2.916,1.42-5.836h1.753v16.754H56.6c0-2.032-0.204-3.639-0.613-4.819c-0.409-1.18-1.017-1.986-1.823-2.419
		c-0.806-0.432-2.378-0.648-4.715-0.648h-4.451v11.813c0,3.738,0.093,6.187,0.28,7.343c0.187,1.156,0.66,2.015,1.42,2.576
		c0.759,0.561,2.226,0.841,4.399,0.841h1.612v1.613H30.627v-1.613H32.1c2.033,0,3.44-0.256,4.223-0.77
		c0.783-0.514,1.285-1.315,1.507-2.401c0.222-1.087,0.333-3.616,0.333-7.588v-23.31c0-3.785-0.111-6.227-0.333-7.326
		c-0.222-1.098-0.69-1.857-1.402-2.278c-0.713-0.42-2.273-0.63-4.68-0.63h-0.841v-1.613H67.572z"/>
	<path style="fill:#E6B54A;" d="M37.48,13.131c1.081,1.47,3.397,1.575,3.397,1.575c3.59,0.215,5.547-2.217,5.547-2.217
		s1.395-1.841,2.868,3.314v0l0,0l0,0v0c1.473-5.155,2.868-3.314,2.868-3.314s1.957,2.432,5.547,2.217c0,0,2.316-0.104,3.397-1.575
		c1.078-1.466,0.794-2.717,0.579-3.505c-0.731-2.678-4.01-3.855-6.047-1.718c-0.402,0.422-0.643,1.16-0.614,1.483
		c0.052,0.577,0.364,1.204,0.818,1.445c0.902,0.48,1.472-0.169,1.252-0.237c-0.594-0.185-0.719-1.641,0.174-1.917
		c1.754-0.541,3.049,1.13,2.328,3.014c-0.64,1.671-3.146,1.186-3.146,1.186c-1.113-0.197-2.259-1.196-2.825-1.718
		C51.811,9.495,50.034,5.897,49.292,0v0l0,0l0,0v0c-0.741,5.896-2.519,9.495-4.33,11.165c-0.566,0.522-1.711,1.521-2.825,1.718
		c0,0-2.506,0.485-3.146-1.186c-0.721-1.884,0.574-3.555,2.328-3.014c0.893,0.276,0.768,1.733,0.174,1.917
		c-0.22,0.068,0.35,0.716,1.252,0.237c0.453-0.241,0.765-0.868,0.818-1.445c0.029-0.323-0.211-1.061-0.614-1.483
		c-2.037-2.138-5.316-0.96-6.047,1.718C36.686,10.414,36.402,11.666,37.48,13.131z"/>
	<g>
		<path style="fill:#E6B54A;" d="M50.935,119.264c-0.711,0.785-1.144,1.826-1.144,2.968c0,2.442,1.668,4.41,4.421,4.42
			c1.977,0.008,3.568-1.558,3.568-3.463c0-1.761-1.439-3.207-3.201-3.207c-1.096,0-1.986,0.737-1.986,1.654
			c0,0.665,0.537,1.203,1.202,1.203c0.485,0,0.878-0.277,0.878-0.619c0-0.175,0.161-0.316,0.356-0.316
			c0.485,0,0.882,0.57,0.882,1.271c0,1.051-1.012,1.901-2.271,1.901c-1.483,0-2.682-1.353-2.682-3.015
			c0-1.905,1.629-3.45,3.642-3.45c0,0,1.956-0.152,3.521,1.551c1.565,1.703,2.359,3.015,4.51,3.015c2.152,0,2.267-1.853,2.267-1.853
			s0.138-1.232-1.139-1.232c-0.517,0-0.935,0.456-0.935,1.022c0,0.297,0.154,0.515,0.301,0.535c0.147,0.02,0.245,0.129,0.245,0.288
			c0,0.158-0.203,0.289-0.333,0.287c-0.081-0.001-0.181,0.002-0.181,0.002c-0.903,0-1.638-0.736-1.638-1.643
			c0-1.24,1.033-2.243,2.314-2.243c1.86,0,3.362,1.467,3.362,3.273c0,1.905-1.642,3.447-3.664,3.447
			c-1.518,0-2.875-0.673-3.773-1.729c-0.341,2.917-2.468,4.558-5.133,4.558c-2.364,0-4.365-1.595-5.034-3.792
			c-0.669,2.197-2.67,3.792-5.034,3.792c-2.664,0-4.792-1.641-5.132-4.558c-0.898,1.056-2.255,1.729-3.773,1.729
			c-2.022,0-3.664-1.542-3.664-3.447c0-1.806,1.502-3.273,3.362-3.273c1.281,0,2.314,1.003,2.314,2.243
			c0,0.908-0.734,1.643-1.638,1.643c0,0-0.101-0.003-0.181-0.002c-0.13,0.002-0.333-0.128-0.333-0.287
			c0-0.158,0.098-0.268,0.245-0.288c0.147-0.02,0.301-0.238,0.301-0.535c0-0.566-0.418-1.022-0.935-1.022
			c-1.277,0-1.139,1.232-1.139,1.232s0.115,1.853,2.267,1.853c2.152,0,2.946-1.312,4.51-3.015c1.565-1.703,3.521-1.551,3.521-1.551
			c2.013,0,3.642,1.545,3.642,3.45c0,1.663-1.199,3.015-2.682,3.015c-1.258,0-2.271-0.85-2.271-1.901
			c0-0.701,0.397-1.271,0.882-1.271c0.195,0,0.356,0.141,0.356,0.316c0,0.341,0.393,0.619,0.878,0.619
			c0.665,0,1.202-0.538,1.202-1.203c0-0.917-0.89-1.654-1.986-1.654c-1.761,0-3.201,1.446-3.201,3.207
			c0,1.905,1.591,3.47,3.568,3.463c2.753-0.01,4.421-1.978,4.421-4.42c0-1.142-0.433-2.184-1.144-2.968v0.002h1.643h1.643V119.264z"
			/>
	</g>
	<g>
		<g>
			<path style="fill:#FFFFFF;" d="M137.675,22.768V46.18h32.304v3.915h-32.304v25.86h-4.242V18.853h40.216v3.915H137.675z"/>
			<path style="fill:#FFFFFF;" d="M242.82,75.956l-7.26-15.989h-33.69l-7.26,15.989h-4.405l26.594-57.511h4.078l26.594,57.511
				H242.82z M218.756,23.095l-15.091,33.037h30.101L218.756,23.095z"/>
			<path style="fill:#FFFFFF;" d="M296.823,76.935c-16.315,0-28.388-12.971-28.388-29.367v-0.164
				c0-16.152,12.073-29.53,28.551-29.53c10.197,0,16.315,3.752,22.189,9.136l-3.018,3.1c-4.977-4.813-10.686-8.402-19.252-8.402
				c-13.705,0-24.065,11.176-24.065,25.534v0.163c0,14.439,10.523,25.696,24.146,25.696c8.239,0,13.868-3.181,19.66-8.892
				l2.855,2.773C313.464,72.938,306.938,76.935,296.823,76.935z"/>
			<path style="fill:#FFFFFF;" d="M345.853,75.956V18.853h40.624v3.915h-36.382v22.434h32.711v3.915h-32.711V72.04h36.79v3.915
				H345.853z"/>
		</g>
	</g>
	<g>
		<path style="fill:#E6B54A;" d="M144.184,105.65c0,1.88-1.145,2.841-2.269,3.331c1.697,0.511,3.066,1.492,3.066,3.475
			c0,2.473-2.064,3.924-5.192,3.924h-6.356v-14.307h6.091C142.344,102.073,144.184,103.463,144.184,105.65z M142.549,105.875
			c0-1.43-1.124-2.351-3.168-2.351h-4.354v4.926h4.231C141.2,108.45,142.549,107.571,142.549,105.875z M143.346,112.354
			c0-1.574-1.308-2.473-3.802-2.473h-4.517v5.048h4.803C141.997,114.929,143.346,113.968,143.346,112.354z"/>
		<path style="fill:#E6B54A;" d="M170.168,116.626c-4.354,0-7.277-3.414-7.277-7.379s2.964-7.419,7.317-7.419
			s7.276,3.413,7.276,7.378S174.521,116.626,170.168,116.626z M170.168,103.32c-3.27,0-5.6,2.616-5.6,5.886
			c0,3.271,2.371,5.928,5.641,5.928s5.6-2.616,5.6-5.887C175.809,105.977,173.438,103.32,170.168,103.32z"/>
		<path style="fill:#E6B54A;" d="M207.925,110.269c0,4.17-2.391,6.336-5.968,6.336c-3.536,0-5.948-2.167-5.948-6.213v-8.319h1.615
			v8.217c0,3.087,1.635,4.824,4.374,4.824c2.637,0,4.312-1.595,4.312-4.721v-8.319h1.615V110.269z"/>
		<path style="fill:#E6B54A;" d="M227.083,102.073h1.615v12.815h8.053v1.492h-9.668V102.073z"/>
		<path style="fill:#E6B54A;" d="M265.412,103.545h-8.727v4.884h7.807v1.472h-7.807v5.008h8.829v1.471H255.07v-14.307h10.342
			V103.545z"/>
		<path style="fill:#E6B54A;" d="M294.871,102.073h1.737l-6.152,14.41h-1.43l-6.152-14.41h1.799l5.089,12.325L294.871,102.073z"/>
		<path style="fill:#E6B54A;" d="M326.044,116.38h-1.737l-1.676-3.781h-7.787l-1.697,3.781h-1.655l6.521-14.41h1.512L326.044,116.38
			z M318.748,103.852l-3.27,7.296h6.52L318.748,103.852z"/>
		<path style="fill:#E6B54A;" d="M354.053,116.38l-4.149-5.56h-4.088v5.56h-1.615v-14.307h6.152c3.147,0,5.171,1.697,5.171,4.271
			c0,2.391-1.635,3.782-3.883,4.191l4.395,5.845H354.053z M350.23,103.565h-4.415v5.804h4.395c2.146,0,3.679-1.103,3.679-2.963
			C353.889,104.628,352.54,103.565,350.23,103.565z"/>
		<path style="fill:#E6B54A;" d="M379.281,116.38h-4.967v-14.307h4.967c4.496,0,7.603,3.087,7.603,7.133
			C386.884,113.253,383.777,116.38,379.281,116.38z M379.281,103.565h-3.352v11.323h3.352c3.618,0,5.928-2.453,5.928-5.641
			S382.899,103.565,379.281,103.565z"/>
	</g>
	<g>
		<path style="fill:#FFFFFF;" d="M40.857,23.996c0.108,0.499-0.208,1.001-0.715,1.111c-0.507,0.109-1.003-0.216-1.111-0.715
			c-0.11-0.507,0.208-1.002,0.715-1.111C40.253,23.171,40.747,23.489,40.857,23.996z"/>
		<path style="fill:#FFFFFF;" d="M44.235,23.475c0.069,0.507-0.286,0.984-0.801,1.054s-0.985-0.294-1.054-0.801
			c-0.07-0.515,0.286-0.983,0.801-1.054C43.695,22.604,44.164,22.96,44.235,23.475z"/>
		<path style="fill:#FFFFFF;" d="M47.646,23.223c0.029,0.51-0.361,0.956-0.879,0.986c-0.518,0.029-0.957-0.369-0.986-0.879
			c-0.029-0.519,0.361-0.957,0.879-0.986C47.177,22.314,47.616,22.705,47.646,23.223z"/>
		<path style="fill:#FFFFFF;" d="M51.049,23.228c-0.01,0.511-0.433,0.927-0.952,0.917c-0.519-0.011-0.927-0.442-0.917-0.953
			c0.011-0.519,0.434-0.926,0.953-0.916S51.059,22.71,51.049,23.228z"/>
		<path style="fill:#FFFFFF;" d="M54.457,23.491c-0.049,0.509-0.503,0.891-1.02,0.842c-0.517-0.05-0.891-0.511-0.842-1.02
			c0.05-0.517,0.503-0.891,1.02-0.842S54.506,22.973,54.457,23.491z"/>
		<path style="fill:#FFFFFF;" d="M57.834,24.017c-0.088,0.504-0.571,0.851-1.083,0.761c-0.512-0.089-0.849-0.577-0.761-1.082
			c0.089-0.512,0.57-0.851,1.082-0.762C57.585,23.024,57.923,23.504,57.834,24.017z"/>
		<path style="fill:#FFFFFF;" d="M61.152,24.804c-0.127,0.495-0.634,0.803-1.137,0.674c-0.503-0.129-0.801-0.642-0.674-1.137
			c0.129-0.503,0.634-0.803,1.137-0.674C60.981,23.795,61.28,24.3,61.152,24.804z"/>
		<path style="fill:#FFFFFF;" d="M64.396,25.846c-0.165,0.484-0.694,0.751-1.186,0.583c-0.492-0.167-0.748-0.702-0.583-1.186
			c0.168-0.491,0.694-0.75,1.186-0.582C64.304,24.828,64.563,25.356,64.396,25.846z"/>
		<path style="fill:#FFFFFF;" d="M67.559,27.139c-0.202,0.47-0.751,0.695-1.228,0.491c-0.478-0.205-0.693-0.759-0.491-1.229
			c0.205-0.477,0.751-0.695,1.229-0.49C67.546,26.116,67.764,26.662,67.559,27.139z"/>
		<path style="fill:#FFFFFF;" d="M70.604,28.675c-0.238,0.453-0.803,0.634-1.262,0.392c-0.46-0.242-0.63-0.811-0.392-1.263
			c0.241-0.459,0.803-0.634,1.262-0.392C70.671,27.654,70.846,28.215,70.604,28.675z"/>
		<path style="fill:#FFFFFF;" d="M73.522,30.438c-0.272,0.433-0.85,0.571-1.289,0.295c-0.44-0.277-0.567-0.856-0.295-1.289
			c0.277-0.44,0.85-0.571,1.289-0.295C73.668,29.426,73.798,29.999,73.522,30.438z"/>
		<path style="fill:#FFFFFF;" d="M76.283,32.415c-0.304,0.411-0.89,0.503-1.307,0.194c-0.417-0.309-0.498-0.896-0.194-1.307
			c0.309-0.417,0.89-0.503,1.307-0.194C76.506,31.418,76.593,31.998,76.283,32.415z"/>
		<path style="fill:#FFFFFF;" d="M78.909,34.619c-0.336,0.386-0.928,0.434-1.32,0.093c-0.392-0.34-0.428-0.933-0.093-1.32
			c0.34-0.392,0.927-0.433,1.32-0.093C79.209,33.641,79.25,34.227,78.909,34.619z"/>
		<path style="fill:#FFFFFF;" d="M81.349,37.011c-0.364,0.359-0.957,0.36-1.322-0.01c-0.364-0.369-0.354-0.962,0.01-1.321
			c0.369-0.365,0.956-0.361,1.321,0.009C81.722,36.059,81.718,36.647,81.349,37.011z"/>
		<path style="fill:#FFFFFF;" d="M83.589,39.577c-0.391,0.33-0.983,0.286-1.318-0.112c-0.335-0.397-0.279-0.988,0.112-1.318
			c0.397-0.335,0.983-0.285,1.318,0.112C84.037,38.657,83.986,39.242,83.589,39.577z"/>
		<path style="fill:#FFFFFF;" d="M85.626,42.304c-0.415,0.298-1.001,0.209-1.303-0.212c-0.303-0.421-0.203-1.006,0.212-1.304
			c0.421-0.302,1.001-0.209,1.303,0.213C86.141,41.422,86.047,42.001,85.626,42.304z"/>
		<path style="fill:#FFFFFF;" d="M87.458,45.193c-0.437,0.266-1.015,0.132-1.286-0.312c-0.271-0.444-0.125-1.019,0.312-1.286
			c0.444-0.27,1.014-0.132,1.286,0.312C88.041,44.351,87.902,44.923,87.458,45.193z"/>
		<path style="fill:#FFFFFF;" d="M89.045,48.196c-0.456,0.231-1.023,0.052-1.257-0.412c-0.235-0.464-0.045-1.026,0.412-1.257
			c0.463-0.235,1.022-0.052,1.257,0.412C89.692,47.403,89.509,47.961,89.045,48.196z"/>
		<path style="fill:#FFFFFF;" d="M90.403,51.328c-0.473,0.195-1.023-0.027-1.221-0.508s0.035-1.026,0.508-1.221
			c0.481-0.198,1.023,0.027,1.221,0.508C91.109,50.587,90.884,51.13,90.403,51.328z"/>
		<path style="fill:#FFFFFF;" d="M91.523,54.578c-0.487,0.158-1.018-0.107-1.179-0.601c-0.16-0.495,0.115-1.021,0.602-1.179
			c0.494-0.16,1.017,0.107,1.178,0.601C92.283,53.893,92.017,54.417,91.523,54.578z"/>
		<path style="fill:#FFFFFF;" d="M92.368,57.869c-0.497,0.119-1.007-0.186-1.128-0.692c-0.12-0.505,0.195-1.009,0.693-1.128
			c0.505-0.121,1.006,0.187,1.127,0.693C93.181,57.247,92.874,57.748,92.368,57.869z"/>
		<path style="fill:#FFFFFF;" d="M92.96,61.218c-0.505,0.08-0.988-0.264-1.07-0.777c-0.081-0.513,0.273-0.99,0.778-1.07
			c0.513-0.081,0.988,0.264,1.069,0.777C93.82,60.661,93.473,61.137,92.96,61.218z"/>
		<path style="fill:#FFFFFF;" d="M93.296,64.611c-0.51,0.041-0.966-0.339-1.008-0.857c-0.041-0.518,0.348-0.967,0.858-1.008
			c0.518-0.042,0.966,0.339,1.008,0.857C94.195,64.121,93.814,64.569,93.296,64.611z"/>
		<path style="fill:#FFFFFF;" d="M93.384,67.986c-0.511,0.009-0.941-0.4-0.951-0.919c-0.009-0.519,0.408-0.941,0.919-0.95
			c0.519-0.009,0.941,0.399,0.95,0.918C94.31,67.554,93.903,67.977,93.384,67.986z"/>
		<path style="fill:#FFFFFF;" d="M93.182,71.424c-0.51-0.037-0.902-0.482-0.865-1c0.038-0.518,0.491-0.902,1.001-0.865
			c0.518,0.038,0.902,0.482,0.865,1.001C94.144,71.078,93.7,71.463,93.182,71.424z"/>
		<path style="fill:#FFFFFF;" d="M92.733,74.806c-0.505-0.076-0.862-0.549-0.784-1.062c0.077-0.513,0.557-0.861,1.062-0.785
			c0.513,0.078,0.862,0.55,0.784,1.063C93.718,74.535,93.246,74.884,92.733,74.806z"/>
		<path style="fill:#FFFFFF;" d="M92.026,78.141c-0.498-0.115-0.818-0.615-0.701-1.122s0.623-0.815,1.122-0.7
			c0.506,0.117,0.817,0.615,0.701,1.122C93.031,77.947,92.532,78.258,92.026,78.141z"/>
		<path style="fill:#FFFFFF;" d="M91.05,81.436c-0.488-0.154-0.766-0.678-0.61-1.173c0.157-0.495,0.686-0.764,1.173-0.61
			c0.495,0.157,0.767,0.678,0.61,1.173C92.067,81.322,91.545,81.593,91.05,81.436z"/>
		<path style="fill:#FFFFFF;" d="M89.832,84.614c-0.474-0.191-0.712-0.735-0.518-1.216c0.194-0.482,0.742-0.708,1.216-0.517
			c0.482,0.194,0.711,0.734,0.517,1.216C90.854,84.578,90.313,84.809,89.832,84.614z"/>
		<path style="fill:#FFFFFF;" d="M88.369,87.702c-0.458-0.227-0.653-0.787-0.422-1.253c0.231-0.465,0.795-0.65,1.253-0.422
			c0.465,0.231,0.653,0.788,0.422,1.253C89.392,87.746,88.836,87.934,88.369,87.702z"/>
		<path style="fill:#FFFFFF;" d="M86.674,90.647c-0.439-0.262-0.589-0.837-0.323-1.283c0.267-0.446,0.844-0.585,1.283-0.323
			c0.446,0.267,0.589,0.837,0.323,1.283C87.69,90.77,87.12,90.913,86.674,90.647z"/>
		<path style="fill:#FFFFFF;" d="M84.748,93.471c-0.417-0.296-0.523-0.88-0.222-1.303c0.3-0.424,0.886-0.519,1.303-0.223
			c0.424,0.3,0.524,0.88,0.223,1.303C85.751,93.672,85.172,93.771,84.748,93.471z"/>
		<path style="fill:#FFFFFF;" d="M82.618,96.131c-0.393-0.327-0.453-0.917-0.121-1.317c0.332-0.399,0.923-0.448,1.316-0.121
			c0.399,0.332,0.453,0.917,0.121,1.316C83.602,96.409,83.016,96.462,82.618,96.131z"/>
		<path style="fill:#FFFFFF;" d="M80.29,98.613c-0.367-0.356-0.381-0.949-0.02-1.322c0.361-0.372,0.954-0.376,1.321-0.02
			c0.373,0.362,0.381,0.949,0.02,1.322C81.25,98.966,80.663,98.975,80.29,98.613z"/>
		<path style="fill:#FFFFFF;" d="M77.778,100.912c-0.338-0.383-0.307-0.976,0.082-1.32c0.39-0.344,0.981-0.301,1.32,0.082
			c0.344,0.389,0.307,0.975-0.082,1.32C78.708,101.337,78.122,101.301,77.778,100.912z"/>
		<path style="fill:#FFFFFF;" d="M75.074,103.033c-0.308-0.408-0.232-0.995,0.182-1.308c0.414-0.313,1.001-0.226,1.309,0.181
			c0.313,0.415,0.232,0.996-0.182,1.309C75.969,103.529,75.387,103.448,75.074,103.033z"/>
		<path style="fill:#FFFFFF;" d="M72.23,104.927c-0.276-0.431-0.154-1.012,0.284-1.293c0.438-0.28,1.016-0.147,1.292,0.284
			c0.28,0.438,0.154,1.012-0.284,1.293C73.085,105.49,72.51,105.364,72.23,104.927z"/>
		<path style="fill:#FFFFFF;" d="M69.27,106.58c-0.242-0.451-0.076-1.02,0.381-1.266c0.457-0.246,1.024-0.069,1.266,0.381
			c0.246,0.458,0.076,1.02-0.381,1.266C70.077,107.207,69.515,107.037,69.27,106.58z"/>
		<path style="fill:#FFFFFF;" d="M66.174,108.004c-0.206-0.468,0.005-1.023,0.48-1.232c0.476-0.209,1.026,0.012,1.232,0.48
			c0.21,0.475-0.004,1.023-0.479,1.232C66.931,108.692,66.383,108.48,66.174,108.004z"/>
		<path style="fill:#FFFFFF;" d="M62.957,109.195c-0.169-0.483,0.084-1.019,0.574-1.191c0.49-0.171,1.022,0.092,1.191,0.574
			c0.172,0.491-0.084,1.019-0.574,1.191C63.657,109.941,63.129,109.685,62.957,109.195z"/>
		<path style="fill:#FFFFFF;" d="M59.696,110.119c-0.131-0.495,0.163-1.01,0.665-1.143c0.501-0.133,1.011,0.171,1.142,0.665
			c0.133,0.502-0.163,1.01-0.665,1.142C60.337,110.916,59.829,110.621,59.696,110.119z"/>
		<path style="fill:#FFFFFF;" d="M56.337,110.792c-0.092-0.503,0.242-0.995,0.753-1.089c0.511-0.093,0.996,0.25,1.088,0.753
			c0.094,0.511-0.241,0.995-0.752,1.088C56.914,111.637,56.431,111.304,56.337,110.792z"/>
		<path style="fill:#FFFFFF;" d="M52.969,111.199c-0.053-0.508,0.317-0.971,0.833-1.025c0.516-0.054,0.972,0.325,1.025,0.833
			c0.054,0.516-0.316,0.971-0.833,1.025C53.478,112.086,53.023,111.716,52.969,111.199z"/>
		<path style="fill:#FFFFFF;" d="M49.562,111.351c-0.014-0.511,0.39-0.945,0.909-0.959c0.52-0.014,0.946,0.398,0.96,0.909
			c0.014,0.519-0.39,0.946-0.909,0.96C50.002,112.275,49.576,111.871,49.562,111.351z"/>
		<path style="fill:#FFFFFF;" d="M46.121,111.242c0.025-0.511,0.462-0.914,0.981-0.889c0.519,0.026,0.913,0.47,0.888,0.981
			c-0.025,0.519-0.461,0.914-0.98,0.888C46.491,112.197,46.096,111.761,46.121,111.242z"/>
		<path style="fill:#FFFFFF;" d="M42.75,110.871c0.064-0.507,0.53-0.875,1.045-0.81c0.515,0.065,0.874,0.537,0.81,1.045
			c-0.065,0.516-0.53,0.875-1.045,0.81C43.045,111.851,42.685,111.386,42.75,110.871z"/>
		<path style="fill:#FFFFFF;" d="M39.395,110.237c0.103-0.5,0.595-0.831,1.103-0.726c0.508,0.104,0.829,0.603,0.726,1.103
			c-0.104,0.508-0.595,0.831-1.103,0.726C39.612,111.236,39.29,110.746,39.395,110.237z"/>
		<path style="fill:#FFFFFF;" d="M36.096,109.345c0.142-0.492,0.659-0.783,1.159-0.639s0.781,0.667,0.639,1.159
			c-0.145,0.499-0.66,0.783-1.16,0.639C36.235,110.359,35.952,109.843,36.096,109.345z"/>
		<path style="fill:#FFFFFF;" d="M32.88,108.196c0.18-0.479,0.72-0.73,1.206-0.546c0.487,0.183,0.727,0.727,0.546,1.206
			c-0.183,0.487-0.719,0.729-1.206,0.546C32.94,109.218,32.698,108.682,32.88,108.196z"/>
		<path style="fill:#FFFFFF;" d="M29.788,106.816c0.217-0.463,0.772-0.671,1.243-0.451c0.47,0.219,0.667,0.779,0.451,1.243
			c-0.219,0.471-0.772,0.671-1.243,0.452C29.768,107.839,29.567,107.287,29.788,106.816z"/>
		<path style="fill:#FFFFFF;" d="M26.768,105.17c0.253-0.445,0.823-0.609,1.275-0.352c0.453,0.257,0.605,0.831,0.352,1.276
			c-0.257,0.452-0.823,0.608-1.276,0.351C26.667,106.189,26.511,105.622,26.768,105.17z"/>
		<path style="fill:#FFFFFF;" d="M23.913,103.319c0.286-0.424,0.867-0.543,1.297-0.253c0.431,0.29,0.539,0.874,0.254,1.297
			c-0.29,0.431-0.867,0.544-1.298,0.254C23.734,104.328,23.622,103.75,23.913,103.319z"/>
		<path style="fill:#FFFFFF;" d="M21.217,101.259c0.318-0.401,0.906-0.475,1.313-0.153c0.407,0.322,0.47,0.912,0.153,1.313
			c-0.322,0.407-0.905,0.475-1.312,0.153C20.963,102.25,20.895,101.667,21.217,101.259z"/>
		<path style="fill:#FFFFFF;" d="M18.654,98.968c0.347-0.376,0.94-0.405,1.322-0.052c0.381,0.352,0.399,0.946,0.052,1.322
			c-0.353,0.381-0.94,0.404-1.322,0.052C18.324,99.937,18.301,99.349,18.654,98.968z"/>
		<path style="fill:#FFFFFF;" d="M16.301,96.507c0.376-0.347,0.969-0.33,1.322,0.052c0.352,0.381,0.324,0.974-0.052,1.322
			c-0.381,0.352-0.97,0.33-1.322-0.052C15.896,97.447,15.92,96.86,16.301,96.507z"/>
		<path style="fill:#FFFFFF;" d="M14.138,93.876c0.401-0.318,0.991-0.256,1.314,0.152c0.323,0.407,0.25,0.996-0.151,1.314
			c-0.408,0.323-0.991,0.256-1.314-0.152C13.664,94.783,13.731,94.198,14.138,93.876z"/>
		<path style="fill:#FFFFFF;" d="M12.186,91.08c0.424-0.286,1.008-0.178,1.298,0.253c0.29,0.431,0.171,1.012-0.254,1.298
			c-0.431,0.291-1.008,0.178-1.298-0.253C11.642,91.947,11.755,91.37,12.186,91.08z"/>
		<path style="fill:#FFFFFF;" d="M10.451,88.134c0.445-0.252,1.017-0.099,1.273,0.353c0.256,0.452,0.092,1.021-0.353,1.273
			c-0.452,0.256-1.017,0.099-1.273-0.353C9.842,88.955,9.999,88.389,10.451,88.134z"/>
		<path style="fill:#FFFFFF;" d="M8.956,85.077c0.463-0.217,1.022-0.02,1.243,0.451c0.219,0.47,0.012,1.026-0.452,1.243
			c-0.47,0.22-1.022,0.02-1.243-0.451C8.284,85.848,8.484,85.296,8.956,85.077z"/>
		<path style="fill:#FFFFFF;" d="M7.694,81.893c0.479-0.179,1.021,0.06,1.204,0.547c0.182,0.487-0.068,1.024-0.547,1.204
			c-0.487,0.182-1.021-0.061-1.204-0.547C6.965,82.61,7.208,82.076,7.694,81.893z"/>
		<path style="fill:#FFFFFF;" d="M6.685,78.63c0.492-0.142,1.014,0.139,1.159,0.639c0.144,0.499-0.146,1.016-0.638,1.159
			c-0.499,0.144-1.014-0.138-1.16-0.638C5.902,79.29,6.185,78.775,6.685,78.63z"/>
		<path style="fill:#FFFFFF;" d="M5.94,75.303c0.5-0.103,0.999,0.218,1.103,0.726c0.105,0.508-0.225,1.001-0.726,1.104
			c-0.508,0.104-0.999-0.218-1.103-0.726C5.109,75.899,5.432,75.408,5.94,75.303z"/>
		<path style="fill:#FFFFFF;" d="M5.456,71.953c0.507-0.064,0.979,0.295,1.045,0.81c0.065,0.515-0.302,0.98-0.81,1.045
			c-0.515,0.065-0.979-0.295-1.045-0.81C4.581,72.483,4.941,72.018,5.456,71.953z"/>
		<path style="fill:#FFFFFF;" d="M5.226,68.53c0.511-0.025,0.955,0.369,0.981,0.889c0.025,0.519-0.377,0.955-0.889,0.98
			c-0.519,0.026-0.955-0.369-0.98-0.888C4.313,68.991,4.707,68.556,5.226,68.53z"/>
		<path style="fill:#FFFFFF;" d="M5.261,65.127c0.511,0.014,0.924,0.44,0.909,0.959c-0.014,0.519-0.448,0.923-0.959,0.909
			c-0.519-0.014-0.924-0.44-0.909-0.959C4.316,65.517,4.742,65.112,5.261,65.127z"/>
		<path style="fill:#FFFFFF;" d="M5.555,61.732c0.508,0.053,0.887,0.509,0.833,1.025c-0.054,0.516-0.517,0.885-1.025,0.832
			c-0.516-0.053-0.887-0.509-0.833-1.025C4.584,62.048,5.039,61.679,5.555,61.732z"/>
		<path style="fill:#FFFFFF;" d="M6.116,58.343c0.503,0.093,0.845,0.578,0.751,1.089c-0.095,0.511-0.586,0.844-1.089,0.751
			c-0.511-0.095-0.846-0.578-0.751-1.089C5.12,58.583,5.605,58.248,6.116,58.343z"/>
		<path style="fill:#FFFFFF;" d="M6.925,55.054c0.495,0.131,0.798,0.641,0.665,1.143c-0.134,0.502-0.649,0.796-1.143,0.665
			c-0.502-0.133-0.798-0.641-0.665-1.143S6.422,54.921,6.925,55.054z"/>
		<path style="fill:#FFFFFF;" d="M7.998,51.805c0.483,0.169,0.745,0.7,0.574,1.191c-0.172,0.49-0.709,0.742-1.192,0.574
			c-0.49-0.171-0.745-0.7-0.574-1.191C6.977,51.888,7.507,51.633,7.998,51.805z"/>
		<path style="fill:#FFFFFF;" d="M9.313,48.673c0.468,0.206,0.689,0.756,0.48,1.232c-0.209,0.475-0.764,0.686-1.232,0.48
			c-0.476-0.21-0.689-0.757-0.48-1.233C8.289,48.677,8.838,48.463,9.313,48.673z"/>
		<path style="fill:#FFFFFF;" d="M10.874,45.642c0.451,0.242,0.627,0.809,0.381,1.266c-0.246,0.457-0.815,0.623-1.266,0.381
			c-0.457-0.246-0.627-0.809-0.381-1.266C9.854,45.566,10.416,45.397,10.874,45.642z"/>
		<path style="fill:#FFFFFF;" d="M12.672,42.729c0.43,0.276,0.562,0.853,0.281,1.29c-0.28,0.437-0.86,0.558-1.29,0.282
			c-0.437-0.28-0.562-0.854-0.282-1.29C11.66,42.574,12.235,42.448,12.672,42.729z"/>
		<path style="fill:#FFFFFF;" d="M14.681,39.971c0.408,0.308,0.495,0.894,0.182,1.308c-0.313,0.415-0.901,0.491-1.309,0.182
			c-0.414-0.313-0.495-0.894-0.181-1.309C13.685,39.738,14.267,39.658,14.681,39.971z"/>
		<path style="fill:#FFFFFF;" d="M16.892,37.379c0.383,0.338,0.426,0.931,0.082,1.32c-0.343,0.389-0.935,0.42-1.319,0.082
			c-0.39-0.343-0.426-0.93-0.083-1.319C15.917,37.072,16.503,37.036,16.892,37.379z"/>
		<path style="fill:#FFFFFF;" d="M19.295,34.969c0.356,0.367,0.352,0.96-0.02,1.322c-0.373,0.361-0.966,0.346-1.322-0.02
			c-0.362-0.372-0.353-0.959,0.02-1.321C18.346,34.588,18.934,34.596,19.295,34.969z"/>
		<path style="fill:#FFFFFF;" d="M21.906,32.727c0.327,0.394,0.277,0.986-0.124,1.318c-0.4,0.332-0.991,0.271-1.318-0.123
			c-0.332-0.401-0.277-0.986,0.124-1.318C20.988,32.272,21.573,32.327,21.906,32.727z"/>
		<path style="fill:#FFFFFF;" d="M24.652,30.712c0.296,0.417,0.202,1.004-0.222,1.303c-0.424,0.3-1.008,0.195-1.303-0.222
			c-0.3-0.424-0.202-1.004,0.222-1.303C23.773,30.189,24.353,30.287,24.652,30.712z"/>
		<path style="fill:#FFFFFF;" d="M27.529,28.928c0.262,0.439,0.123,1.015-0.323,1.283c-0.446,0.266-1.019,0.116-1.282-0.323
			c-0.266-0.446-0.123-1.015,0.323-1.283C26.693,28.338,27.262,28.482,27.529,28.928z"/>
		<path style="fill:#FFFFFF;" d="M30.579,27.349c0.227,0.458,0.043,1.022-0.422,1.253c-0.465,0.23-1.026,0.035-1.253-0.423
			c-0.231-0.465-0.043-1.022,0.422-1.253C29.79,26.696,30.348,26.883,30.579,27.349z"/>
		<path style="fill:#FFFFFF;" d="M33.72,26.018c0.191,0.474-0.036,1.022-0.518,1.216c-0.481,0.194-1.024-0.043-1.215-0.517
			c-0.194-0.482,0.035-1.022,0.517-1.216C32.985,25.307,33.525,25.537,33.72,26.018z"/>
		<path style="fill:#FFFFFF;" d="M36.954,24.942c0.153,0.488-0.116,1.016-0.612,1.171c-0.495,0.156-1.018-0.124-1.171-0.612
			c-0.156-0.495,0.116-1.015,0.612-1.171C36.278,24.176,36.798,24.447,36.954,24.942z"/>
	</g>
</g>
<g>
</g>
<g>
</g>
<g>
</g>
<g>
</g>
<g>
</g>
<g>
</g>
</svg>
