<?xml version="1.0" encoding="iso-8859-1"?>
<!-- Generator: Adobe Illustrator 18.0.0, SVG Export Plug-In . SVG Version: 6.00 Build 0)  -->
<!DOCTYPE svg PUBLIC "-//W3C//DTD SVG 1.1//EN" "http://www.w3.org/Graphics/SVG/1.1/DTD/svg11.dtd">
<svg version="1.1" id="Capa_1" xmlns="http://www.w3.org/2000/svg" xmlns:xlink="http://www.w3.org/1999/xlink" x="0px" y="0px"
	 viewBox="0 0 407.43 407.429" style="enable-background:new 0 0 407.43 407.429;" xml:space="preserve">
<g>
	<path style="fill:#FFB729;" d="M407.43,203.714c0,112.508-91.207,203.715-203.715,203.715S0,316.222,0,203.714
		C0,91.207,91.207,0,203.715,0S407.43,91.207,407.43,203.714L407.43,203.714z M407.43,203.714"/>
	<path style="fill:#4F5565;" d="M343.684,372.707c-25.496-32.278-48.555-56.418-69.715-74.051
		c-47.199-13.836-93.039-13.836-140.239,0c-21.429,17.633-44.214,41.5-69.714,74.051c-22.243,29.027-7.051,45.031,21.429,26.855
		c81.922-52.894,155.16-52.894,237.082,0C350.738,418.007,365.926,401.734,343.684,372.707L343.684,372.707z M343.684,372.707"/>
	<path style="fill:#393D47;" d="M203.715,353.449c37.433,0,72.156-10.035,100.094-26.856c-10.309-10.578-20.344-19.8-29.836-27.668
		c-47.2-13.832-93.043-13.832-140.243,0c-9.496,7.868-19.531,17.09-29.839,27.668C131.559,343.414,166.281,353.449,203.715,353.449
		L203.715,353.449z M203.715,353.449"/>
	<path style="fill:#646B79;" d="M365.656,186.082c0,89.437-72.504,161.941-161.941,161.941
		c-89.438,0-161.942-72.504-161.942-161.941c0-89.438,72.504-161.942,161.942-161.942C293.152,24.14,365.656,96.644,365.656,186.082
		L365.656,186.082z M365.656,186.082"/>
	<path style="fill:#767C87;" d="M282.379,129.66c-18.172-25.227-47.469-40.145-78.664-40.145c-30.922,0-60.219,14.918-78.664,40.145
		c-9.223,12.75-27.125,15.465-39.606,6.242c-12.746-9.223-15.461-27.129-6.238-39.606c29.023-39.875,75.41-63.472,124.508-63.472
		c49.097,0,95.754,23.867,124.508,63.472c9.222,12.75,5.422,29.297-6.243,39.606C308.965,147.293,287.805,137.257,282.379,129.66
		L282.379,129.66z M282.379,129.66"/>
	<path style="fill:#BDBDBE;" d="M295.941,186.082c0,50.937-41.289,92.23-92.226,92.23c-50.938,0-92.227-41.293-92.227-92.23
		c0-50.934,41.289-92.227,92.227-92.227C254.652,93.855,295.941,135.148,295.941,186.082L295.941,186.082z M295.941,186.082"/>
	<path style="fill:#414753;" d="M261.766,186.082c0,32.062-25.993,58.05-58.051,58.05c-32.059,0-58.051-25.988-58.051-58.05
		c0-32.059,25.992-58.047,58.051-58.047C235.773,128.035,261.766,154.023,261.766,186.082L261.766,186.082z M261.766,186.082"/>
	<path style="fill:#03AA64;" d="M242.234,186.082c0,21.273-17.246,38.519-38.519,38.519c-21.274,0-38.52-17.246-38.52-38.519
		c0-21.274,17.246-38.516,38.52-38.516C224.988,147.566,242.234,164.808,242.234,186.082L242.234,186.082z M242.234,186.082"/>
	<path style="fill:#DDDEE6;" d="M252.543,149.464c-11.395-15.464-29.57-24.957-48.828-24.957s-37.434,9.223-48.824,24.957
		c-4.614,6.239-13.567,7.864-19.805,3.254c-6.238-4.613-7.863-13.562-3.254-19.8c16.547-23.059,43.402-36.622,71.883-36.622
		c28.211,0,55.066,13.563,71.883,36.622c4.613,6.238,3.257,15.187-3.254,19.8C265.289,157.871,255.254,153.261,252.543,149.464
		L252.543,149.464z M252.543,149.464"/>
	<path style="fill:#393D47;" d="M216.191,58.32c0,6.891-5.586,12.476-12.476,12.476c-6.891,0-12.477-5.585-12.477-12.476
		c0-6.891,5.586-12.477,12.477-12.477C210.605,45.843,216.191,51.429,216.191,58.32L216.191,58.32z M216.191,58.32"/>
</g>
</svg>
