<?xml version="1.0" encoding="iso-8859-1"?>
<!-- Generator: Adobe Illustrator 18.0.0, SVG Export Plug-In . SVG Version: 6.00 Build 0)  -->
<!DOCTYPE svg PUBLIC "-//W3C//DTD SVG 1.1//EN" "http://www.w3.org/Graphics/SVG/1.1/DTD/svg11.dtd">
<svg version="1.1" id="Layer_1" xmlns="http://www.w3.org/2000/svg" xmlns:xlink="http://www.w3.org/1999/xlink" x="0px" y="0px"
	 viewBox="0 0 484.123 54.039" style="enable-background:new 0 0 484.123 54.039;" xml:space="preserve">
<g>
	<path style="fill:#FFFFFF;" d="M266.333,14.436V7.72c0-5.172-2.548-7.72-7.72-7.72h-1.067h-8.939h-7.749
		c-5.172,0-7.72,2.548-7.72,7.72v38.599c0,5.172,2.547,7.72,7.72,7.72h7.749h8.939h1.067c5.173,0,7.72-2.548,7.72-7.72v-6.717h-7.72
		v3.629c0,2.547-1.312,3.86-3.86,3.86h-6.146h-3.117c-2.548,0-3.86-1.313-3.86-3.86V10.808c0-2.547,1.312-3.86,3.86-3.86h3.117
		h6.146c2.548,0,3.86,1.313,3.86,3.86v3.629H266.333z"/>
	<path style="fill:#FF7708;" d="M282.621,26.016c3.01-1.467,4.554-3.937,4.554-7.257V8.492c0-5.635-2.856-8.492-8.492-8.492H263.63
		c4.907,0,7.447,2.297,7.696,6.948h3.498c2.548,0,3.86,1.313,3.86,3.86v7.951c0,2.547-1.311,3.86-3.86,3.86h-29.936v6.948h30.322
		c2.548,0,3.86,1.313,3.86,3.859v9.804c0,2.547-1.312,3.86-3.86,3.86h-3.884c-0.249,4.651-2.789,6.948-7.696,6.948h15.44
		c5.635,0,8.492-2.856,8.492-8.492v-12.12C287.562,29.644,285.941,27.174,282.621,26.016z"/>
</g>
<g>
	<path style="fill:#FFFFFF;" d="M320.088,24.383v-0.76c0-0.534-0.275-0.809-0.809-0.809h-8.574c-0.534,0-0.809,0.275-0.809,0.809
		v6.794c0,0.534,0.275,0.809,0.809,0.809h8.574c0.534,0,0.809-0.275,0.809-0.809v-0.76h1.618v1.407c0,1.084-0.534,1.618-1.618,1.618
		h-10.353c-1.084,0-1.618-0.534-1.618-1.618v-8.088c0-1.084,0.534-1.618,1.618-1.618h10.353c1.084,0,1.618,0.534,1.618,1.618v1.407
		H320.088z"/>
	<path style="fill:#FFFFFF;" d="M331.686,32.681h-7.15c-0.971,0-1.456-0.485-1.456-1.456v-1.65c0-0.938,0.437-1.407,1.294-1.407
		h7.296v-1.084c0-0.259-0.162-0.388-0.485-0.388h-6.066c-0.324,0-0.485,0.129-0.485,0.388v0.259h-1.456v-0.55
		c0-0.922,0.485-1.391,1.456-1.391h7.037c0.971,0,1.456,0.469,1.456,1.391v5.629L331.686,32.681z M324.536,29.98v0.922
		c0,0.324,0.162,0.485,0.485,0.485h6.179l0.469-0.097v-1.828h-6.649C324.697,29.462,324.536,29.64,324.536,29.98z"/>
	<path style="fill:#FFFFFF;" d="M341.892,27.278v-0.097c0-0.323-0.162-0.485-0.485-0.485h-4.885l-0.485,0.146v5.84h-1.456v-6.859
		l1.407-0.421h5.904c0.857,0,1.294,0.437,1.294,1.294v0.582H341.892z"/>
	<path style="fill:#FFFFFF;" d="M345.774,26.696v4.125c0,0.372,0.194,0.566,0.566,0.566h4.287v1.294h-4.853
		c-0.971,0-1.456-0.485-1.456-1.456v-4.529h-0.485v-1.294h0.485v-2.427h1.456v2.427h4.707v1.294H345.774z"/>
	<path style="fill:#FFFFFF;" d="M351.597,22.813v-1.456h1.456v1.456H351.597z M351.597,32.681v-7.279h1.456v7.279H351.597z"/>
	<path style="fill:#FFFFFF;" d="M355.964,29.446v1.456c0,0.324,0.162,0.485,0.485,0.485h5.84c0.324,0,0.485-0.162,0.485-0.485V30.74
		h1.456v0.647c0,0.857-0.437,1.294-1.294,1.294h-7.134c-0.857,0-1.294-0.437-1.294-1.294v-4.691c0-0.857,0.437-1.294,1.294-1.294
		h7.101c0.857,0,1.294,0.437,1.294,1.294v2.75H355.964z M355.964,27.181v0.971h6.778v-0.971c0-0.323-0.162-0.485-0.485-0.485h-5.807
		C356.126,26.696,355.964,26.858,355.964,27.181z"/>
	<path style="fill:#FFFFFF;" d="M372.917,27.278v-0.097c0-0.323-0.162-0.485-0.485-0.485h-4.885l-0.485,0.146v5.84h-1.456v-6.859
		l1.407-0.421h5.904c0.857,0,1.294,0.437,1.294,1.294v0.582H372.917z"/>
	<path style="fill:#FFFFFF;" d="M395.595,26.809c0.696,0.243,1.035,0.76,1.035,1.553v2.54c0,1.181-0.599,1.779-1.78,1.779h-12.149
		V21.358h12.068c1.181,0,1.779,0.599,1.779,1.779v2.151C396.55,25.984,396.226,26.502,395.595,26.809z M384.482,26.097h9.479
		c0.534,0,0.809-0.275,0.809-0.809v-1.666c0-0.534-0.275-0.809-0.809-0.809h-9.479V26.097z M384.482,31.225h9.56
		c0.534,0,0.809-0.275,0.809-0.809v-2.054c0-0.534-0.275-0.809-0.809-0.809h-9.56V31.225z"/>
	<path style="fill:#FFFFFF;" d="M406.335,32.681h-7.053c-0.857,0-1.294-0.437-1.294-1.294v-5.985h1.456v5.5
		c0,0.324,0.162,0.485,0.485,0.485h5.953l0.485-0.146v-5.84h1.375v6.859L406.335,32.681z"/>
	<path style="fill:#FFFFFF;" d="M416.509,27.278v-0.097c0-0.323-0.162-0.485-0.485-0.485h-4.885l-0.485,0.146v5.84h-1.456v-6.859
		l1.407-0.421h5.904c0.857,0,1.294,0.437,1.294,1.294v0.582H416.509z"/>
	<path style="fill:#FFFFFF;" d="M420.391,26.696v4.125c0,0.372,0.194,0.566,0.566,0.566h4.287v1.294h-4.853
		c-0.971,0-1.456-0.485-1.456-1.456v-4.529h-0.485v-1.294h0.485v-2.427h1.456v2.427h4.707v1.294H420.391z"/>
	<path style="fill:#FFFFFF;" d="M426.214,22.813v-1.456h1.456v1.456H426.214z M426.214,32.681v-7.279h1.456v7.279H426.214z"/>
	<path style="fill:#FFFFFF;" d="M437.716,32.681v-5.5c0-0.323-0.162-0.485-0.485-0.485h-6.163l-0.485,0.146v5.84h-1.456v-6.859
		l1.407-0.421h7.344c0.857,0,1.294,0.437,1.294,1.294v5.985H437.716z"/>
	<path style="fill:#FFFFFF;" d="M460.2,24.383v-0.76c0-0.534-0.275-0.809-0.809-0.809h-8.913c-0.534,0-0.809,0.275-0.809,0.809
		v1.796c0,0.437,0.21,0.663,0.647,0.663h10.046c1.052,0,1.569,0.518,1.569,1.537v3.446c0,1.084-0.534,1.618-1.618,1.618h-10.854
		c-1.084,0-1.618-0.534-1.618-1.618v-1.407h1.779v0.76c0,0.534,0.275,0.809,0.809,0.809h8.913c0.534,0,0.809-0.275,0.809-0.809
		v-2.135c0-0.501-0.243-0.744-0.744-0.744h-10.062c-0.971,0-1.456-0.485-1.456-1.472v-3.09c0-1.084,0.534-1.618,1.617-1.618h10.757
		c1.084,0,1.618,0.534,1.618,1.618v1.407H460.2z"/>
	<path style="fill:#FFFFFF;" d="M463.451,32.681v-1.456h1.456v1.456H463.451z"/>
	<path style="fill:#FFFFFF;" d="M479.481,32.681l-1.456-2.524h-8.638l-1.488,2.524h-1.828l6.859-11.324h1.86l6.713,11.324H479.481z
		 M477.184,28.702l-3.413-5.904l-3.51,5.904H477.184z"/>
	<path style="fill:#FFFFFF;" d="M482.667,32.681v-1.456h1.456v1.456H482.667z"/>
</g>
<g>
	<path style="fill:#A7A9AC;" d="M0,33.536V20.387h9.075c2.01,0,3.423,0.083,4.239,0.25c0.983,0.199,1.731,0.722,2.245,1.57
		c0.263,0.43,0.449,1.007,0.559,1.729c0.109,0.722,0.164,1.729,0.164,3.02c0,1.612-0.144,2.89-0.434,3.834
		c-0.449,1.451-1.406,2.302-2.871,2.553c-0.758,0.128-2.013,0.193-3.767,0.193H0z M1.753,31.995h7.379
		c1.265,0,2.05-0.008,2.355-0.024c0.305-0.016,0.641-0.069,1.007-0.159c0.713-0.167,1.223-0.632,1.532-1.397
		c0.308-0.764,0.462-1.943,0.462-3.535c0-2.068-0.266-3.43-0.8-4.085c-0.199-0.25-0.462-0.438-0.79-0.564
		c-0.327-0.125-0.774-0.214-1.339-0.265c-0.334-0.026-1.172-0.039-2.514-0.039H1.753V31.995z"/>
	<path style="fill:#A7A9AC;" d="M27.792,30.714h1.512c-0.026,1.092-0.411,1.855-1.156,2.288c-0.745,0.434-2.042,0.65-3.892,0.65
		c-1.529,0-2.689-0.059-3.483-0.178c-0.793-0.119-1.392-0.319-1.797-0.602c-0.925-0.655-1.387-1.949-1.387-3.882
		c0-1.355,0.196-2.373,0.588-3.054c0.372-0.648,0.91-1.087,1.614-1.315c0.703-0.228,1.877-0.342,3.521-0.342
		c1.573,0,2.71,0.083,3.41,0.25c0.7,0.167,1.259,0.488,1.676,0.963c0.347,0.398,0.584,0.861,0.713,1.387
		c0.128,0.526,0.199,1.329,0.212,2.408H19.141c0.039,1.137,0.263,1.917,0.674,2.341c0.276,0.289,0.718,0.486,1.325,0.592
		c0.607,0.106,1.594,0.159,2.962,0.159c1.034,0,1.792-0.048,2.274-0.144c0.482-0.097,0.841-0.273,1.079-0.53
		C27.635,31.507,27.747,31.176,27.792,30.714z M27.725,28.055c-0.007-0.893-0.244-1.516-0.713-1.869
		c-0.308-0.238-0.74-0.403-1.296-0.496c-0.556-0.093-1.37-0.14-2.442-0.14c-0.938,0-1.652,0.043-2.143,0.13
		c-0.491,0.087-0.875,0.239-1.151,0.458c-0.456,0.353-0.719,0.992-0.79,1.917H27.725z"/>
	<path style="fill:#A7A9AC;" d="M30.393,30.348h1.541c0,0.129,0,0.215,0,0.26c0,0.495,0.053,0.848,0.159,1.06
		c0.106,0.212,0.316,0.375,0.631,0.491c0.417,0.148,1.619,0.222,3.603,0.222c1.24,0,2.102-0.027,2.587-0.082
		c0.485-0.054,0.833-0.162,1.045-0.323c0.289-0.218,0.433-0.556,0.433-1.011c0-0.552-0.173-0.93-0.52-1.132
		c-0.347-0.202-0.979-0.3-1.898-0.294c-0.289,0.006-1.679-0.01-4.171-0.048c-0.649-0.013-1.167-0.064-1.556-0.154
		c-0.389-0.09-0.711-0.235-0.968-0.434c-0.488-0.379-0.732-1.018-0.732-1.917c0-0.95,0.305-1.641,0.915-2.071
		c0.321-0.225,0.848-0.387,1.58-0.486c0.732-0.1,1.785-0.149,3.16-0.149c1.535,0,2.667,0.083,3.396,0.25
		c0.729,0.167,1.263,0.462,1.604,0.886c0.167,0.205,0.274,0.422,0.323,0.65c0.048,0.228,0.072,0.612,0.072,1.151h-1.522
		c-0.006-0.559-0.1-0.925-0.279-1.098c-0.199-0.199-0.584-0.344-1.156-0.434c-0.572-0.09-1.4-0.135-2.485-0.135
		c-1.978,0-3.179,0.138-3.603,0.414c-0.308,0.206-0.462,0.553-0.462,1.041c0,0.501,0.18,0.832,0.54,0.992
		c0.36,0.161,1.085,0.231,2.177,0.212c1.079-0.019,2.476,0.006,4.19,0.077c1.04,0.039,1.79,0.267,2.249,0.684
		c0.459,0.417,0.689,1.079,0.689,1.984c0,0.546-0.08,0.989-0.241,1.329c-0.161,0.341-0.421,0.62-0.78,0.838
		c-0.315,0.193-0.828,0.329-1.541,0.41c-0.713,0.08-1.744,0.12-3.092,0.12c-1.509,0-2.628-0.045-3.357-0.135
		c-0.729-0.09-1.264-0.25-1.604-0.482c-0.347-0.231-0.589-0.511-0.727-0.838c-0.138-0.328-0.207-0.784-0.207-1.368
		C30.384,30.752,30.387,30.592,30.393,30.348z"/>
	<path style="fill:#A7A9AC;" d="M44.824,27.14h-1.503c-0.013-0.167-0.019-0.298-0.019-0.395c0-0.957,0.36-1.609,1.079-1.956
		c0.719-0.347,2.068-0.52,4.046-0.52c1.554,0,2.671,0.071,3.352,0.212c0.681,0.142,1.214,0.411,1.599,0.809
		c0.321,0.321,0.53,0.7,0.626,1.137c0.096,0.437,0.144,1.201,0.144,2.292v4.817h-1.435l0.029-1.069h-0.077
		c-0.36,0.501-0.792,0.824-1.296,0.968c-0.504,0.144-1.456,0.217-2.856,0.217c-1.599,0-2.71-0.039-3.333-0.116
		c-0.623-0.077-1.095-0.238-1.416-0.482c-0.321-0.231-0.544-0.507-0.67-0.829c-0.125-0.321-0.188-0.771-0.188-1.349
		c0-0.706,0.095-1.249,0.284-1.628c0.189-0.379,0.509-0.661,0.958-0.848c0.488-0.212,1.628-0.318,3.42-0.318
		c1.875,0,3.102,0.056,3.68,0.169c0.578,0.113,1.024,0.384,1.339,0.814h0.125v-0.983c0-0.803-0.144-1.381-0.434-1.734
		c-0.257-0.315-0.647-0.528-1.17-0.641c-0.523-0.112-1.379-0.169-2.567-0.169c-1.561,0-2.571,0.092-3.03,0.275
		c-0.459,0.183-0.689,0.583-0.689,1.199C44.824,27.047,44.824,27.088,44.824,27.14z M48.523,29.365c-1.188,0-2.02,0.021-2.495,0.063
		c-0.475,0.042-0.813,0.12-1.011,0.236c-0.379,0.225-0.568,0.639-0.568,1.243c0,0.597,0.225,1.002,0.674,1.214
		c0.366,0.174,1.599,0.26,3.699,0.26c1.535,0,2.549-0.099,3.044-0.299c0.494-0.199,0.742-0.604,0.742-1.214
		c0-0.591-0.276-0.989-0.828-1.195C51.227,29.468,50.141,29.365,48.523,29.365z"/>
	<path style="fill:#A7A9AC;" d="M55.661,24.394h1.445v1.233h0.096c0.225-0.411,0.568-0.735,1.031-0.973
		c0.276-0.141,0.641-0.239,1.093-0.294c0.453-0.054,1.129-0.082,2.028-0.082c0.899,0,1.569,0.05,2.009,0.149
		c0.44,0.099,0.817,0.281,1.132,0.544c0.617,0.533,0.925,1.397,0.925,2.592v0.944h-1.483v-0.655c0-0.507-0.034-0.891-0.101-1.151
		c-0.068-0.26-0.188-0.473-0.361-0.64c-0.366-0.341-1.127-0.511-2.283-0.511c-1.741,0-2.856,0.226-3.347,0.679
		c-0.491,0.453-0.737,1.482-0.737,3.088v4.219h-1.445V24.394z"/>
	<path style="fill:#A7A9AC;" d="M66.402,24.394h1.445v1.233h0.096c0.225-0.411,0.568-0.735,1.031-0.973
		c0.276-0.141,0.641-0.239,1.093-0.294c0.453-0.054,1.129-0.082,2.028-0.082c0.899,0,1.569,0.05,2.009,0.149
		c0.44,0.099,0.817,0.281,1.132,0.544c0.617,0.533,0.925,1.397,0.925,2.592v0.944h-1.483v-0.655c0-0.507-0.034-0.891-0.101-1.151
		c-0.068-0.26-0.188-0.473-0.361-0.64c-0.366-0.341-1.127-0.511-2.283-0.511c-1.741,0-2.856,0.226-3.347,0.679
		c-0.491,0.453-0.737,1.482-0.737,3.088v4.219h-1.445V24.394z"/>
	<path style="fill:#A7A9AC;" d="M82.653,24.279c1.439,0,2.5,0.043,3.184,0.13c0.684,0.087,1.219,0.246,1.604,0.477
		c0.578,0.347,0.996,0.84,1.252,1.479c0.257,0.639,0.385,1.507,0.385,2.606c0,1.22-0.154,2.148-0.462,2.784
		c-0.225,0.482-0.525,0.857-0.901,1.127c-0.375,0.27-0.868,0.466-1.478,0.587c-0.591,0.122-1.574,0.183-2.948,0.183
		c-1.297,0-2.277-0.043-2.938-0.13c-0.662-0.087-1.198-0.242-1.609-0.467c-0.61-0.328-1.047-0.811-1.31-1.45
		c-0.263-0.639-0.395-1.533-0.395-2.683c0-1.284,0.189-2.257,0.568-2.919c0.385-0.681,0.918-1.137,1.599-1.368
		C79.885,24.404,81.035,24.285,82.653,24.279z M82.885,25.55c-0.957,0-1.679,0.035-2.167,0.106
		c-0.488,0.071-0.877,0.199-1.166,0.386c-0.341,0.218-0.588,0.563-0.742,1.035c-0.154,0.472-0.231,1.116-0.231,1.932
		c0,0.925,0.103,1.617,0.308,2.076c0.205,0.459,0.559,0.785,1.06,0.978c0.552,0.212,1.628,0.318,3.227,0.318
		c1.04,0,1.806-0.039,2.298-0.116c0.491-0.077,0.882-0.222,1.171-0.434c0.321-0.225,0.55-0.562,0.689-1.011
		c0.138-0.449,0.207-1.082,0.207-1.898c0-0.963-0.109-1.67-0.327-2.119c-0.244-0.501-0.65-0.835-1.219-1.002
		C85.423,25.634,84.387,25.55,82.885,25.55z"/>
	<path style="fill:#A7A9AC;" d="M90.524,20.387h1.445v13.149h-1.445V20.387z"/>
	<path style="fill:#A7A9AC;" d="M93.684,20.387h1.445v13.149h-1.445V20.387z"/>
	<path style="fill:#A7A9AC;" d="M98.356,27.14h-1.503c-0.013-0.167-0.019-0.298-0.019-0.395c0-0.957,0.36-1.609,1.079-1.956
		c0.719-0.347,2.068-0.52,4.046-0.52c1.554,0,2.672,0.071,3.353,0.212c0.681,0.142,1.214,0.411,1.599,0.809
		c0.321,0.321,0.53,0.7,0.626,1.137s0.145,1.201,0.145,2.292v4.817h-1.436l0.029-1.069h-0.077c-0.36,0.501-0.791,0.824-1.296,0.968
		c-0.504,0.144-1.456,0.217-2.856,0.217c-1.599,0-2.71-0.039-3.333-0.116c-0.623-0.077-1.095-0.238-1.416-0.482
		c-0.321-0.231-0.544-0.507-0.669-0.829c-0.125-0.321-0.188-0.771-0.188-1.349c0-0.706,0.095-1.249,0.284-1.628
		c0.189-0.379,0.509-0.661,0.958-0.848c0.488-0.212,1.628-0.318,3.42-0.318c1.875,0,3.102,0.056,3.68,0.169
		c0.578,0.113,1.024,0.384,1.339,0.814h0.125v-0.983c0-0.803-0.145-1.381-0.434-1.734c-0.257-0.315-0.647-0.528-1.17-0.641
		c-0.524-0.112-1.379-0.169-2.568-0.169c-1.561,0-2.57,0.092-3.03,0.275c-0.459,0.183-0.689,0.583-0.689,1.199
		C98.356,27.047,98.356,27.088,98.356,27.14z M102.055,29.365c-1.188,0-2.02,0.021-2.495,0.063c-0.475,0.042-0.812,0.12-1.011,0.236
		c-0.379,0.225-0.568,0.639-0.568,1.243c0,0.597,0.225,1.002,0.674,1.214c0.366,0.174,1.599,0.26,3.699,0.26
		c1.535,0,2.55-0.099,3.044-0.299c0.495-0.199,0.742-0.604,0.742-1.214c0-0.591-0.276-0.989-0.828-1.195
		C104.759,29.468,103.673,29.365,102.055,29.365z"/>
	<path style="fill:#A7A9AC;" d="M124.125,30.714h1.512c-0.026,1.092-0.411,1.855-1.156,2.288c-0.745,0.434-2.042,0.65-3.892,0.65
		c-1.528,0-2.69-0.059-3.483-0.178c-0.793-0.119-1.392-0.319-1.796-0.602c-0.925-0.655-1.387-1.949-1.387-3.882
		c0-1.355,0.196-2.373,0.588-3.054c0.372-0.648,0.91-1.087,1.614-1.315c0.703-0.228,1.877-0.342,3.521-0.342
		c1.573,0,2.71,0.083,3.41,0.25c0.7,0.167,1.258,0.488,1.676,0.963c0.347,0.398,0.584,0.861,0.713,1.387
		c0.128,0.526,0.199,1.329,0.212,2.408h-10.182c0.039,1.137,0.263,1.917,0.674,2.341c0.276,0.289,0.718,0.486,1.325,0.592
		c0.607,0.106,1.594,0.159,2.962,0.159c1.034,0,1.792-0.048,2.273-0.144c0.482-0.097,0.841-0.273,1.079-0.53
		C123.968,31.507,124.08,31.176,124.125,30.714z M124.058,28.055c-0.006-0.893-0.244-1.516-0.713-1.869
		c-0.308-0.238-0.74-0.403-1.296-0.496c-0.556-0.093-1.37-0.14-2.442-0.14c-0.938,0-1.652,0.043-2.143,0.13
		c-0.491,0.087-0.875,0.239-1.151,0.458c-0.456,0.353-0.719,0.992-0.79,1.917H124.058z"/>
	<path style="fill:#A7A9AC;" d="M132.102,20.387h1.753v13.149h-1.753V20.387z"/>
	<path style="fill:#A7A9AC;" d="M135.628,24.394h1.445v1.377h0.106c0.308-0.584,0.779-0.979,1.411-1.185
		c0.633-0.205,1.7-0.308,3.203-0.308c1.31,0,2.281,0.072,2.914,0.217c0.633,0.145,1.129,0.406,1.489,0.785
		c0.283,0.302,0.48,0.679,0.592,1.132c0.112,0.453,0.169,1.106,0.169,1.96v5.164h-1.445V28.99c0-0.816-0.034-1.402-0.101-1.758
		c-0.067-0.356-0.204-0.657-0.409-0.901c-0.244-0.283-0.618-0.483-1.122-0.602c-0.504-0.119-1.257-0.178-2.259-0.178
		c-1.118,0-1.988,0.082-2.61,0.246c-0.623,0.164-1.092,0.432-1.406,0.804c-0.219,0.27-0.362,0.573-0.429,0.91
		c-0.068,0.337-0.101,0.936-0.101,1.796v4.229h-1.445V24.394z"/>
	<path style="fill:#A7A9AC;" d="M147.235,24.394h1.686l4.431,7.803h0.154l4.451-7.803h1.743l-5.317,9.142h-1.879L147.235,24.394z"/>
	<path style="fill:#A7A9AC;" d="M160.288,20.387h1.445v1.715h-1.445V20.387z M160.288,24.394h1.445v9.142h-1.445V24.394z"/>
	<path style="fill:#A7A9AC;" d="M173.38,30.714h1.512c-0.026,1.092-0.411,1.855-1.156,2.288c-0.745,0.434-2.042,0.65-3.892,0.65
		c-1.528,0-2.69-0.059-3.483-0.178c-0.793-0.119-1.392-0.319-1.796-0.602c-0.925-0.655-1.387-1.949-1.387-3.882
		c0-1.355,0.196-2.373,0.588-3.054c0.372-0.648,0.91-1.087,1.614-1.315s1.877-0.342,3.521-0.342c1.573,0,2.71,0.083,3.41,0.25
		c0.7,0.167,1.258,0.488,1.676,0.963c0.347,0.398,0.584,0.861,0.713,1.387c0.128,0.526,0.199,1.329,0.212,2.408h-10.182
		c0.039,1.137,0.263,1.917,0.674,2.341c0.276,0.289,0.718,0.486,1.325,0.592c0.607,0.106,1.594,0.159,2.962,0.159
		c1.034,0,1.792-0.048,2.273-0.144c0.482-0.097,0.841-0.273,1.079-0.53C173.223,31.507,173.335,31.176,173.38,30.714z
		 M173.312,28.055c-0.006-0.893-0.244-1.516-0.713-1.869c-0.308-0.238-0.74-0.403-1.296-0.496c-0.556-0.093-1.37-0.14-2.442-0.14
		c-0.938,0-1.652,0.043-2.143,0.13c-0.491,0.087-0.875,0.239-1.151,0.458c-0.456,0.353-0.719,0.992-0.79,1.917H173.312z"/>
	<path style="fill:#A7A9AC;" d="M176.232,24.394h1.445v1.233h0.096c0.225-0.411,0.568-0.735,1.031-0.973
		c0.276-0.141,0.641-0.239,1.093-0.294c0.453-0.054,1.129-0.082,2.028-0.082c0.899,0,1.569,0.05,2.009,0.149
		c0.44,0.099,0.817,0.281,1.132,0.544c0.617,0.533,0.925,1.397,0.925,2.592v0.944h-1.483v-0.655c0-0.507-0.034-0.891-0.101-1.151
		c-0.068-0.26-0.188-0.473-0.361-0.64c-0.366-0.341-1.127-0.511-2.283-0.511c-1.741,0-2.856,0.226-3.348,0.679
		c-0.491,0.453-0.737,1.482-0.737,3.088v4.219h-1.445V24.394z"/>
	<path style="fill:#A7A9AC;" d="M188.668,22.131h1.445v2.264h6.396v1.233h-6.396v3.969c0.012,0.867,0.035,1.397,0.067,1.589
		c0.032,0.193,0.125,0.386,0.279,0.578c0.18,0.225,0.449,0.384,0.809,0.477c0.36,0.093,0.886,0.14,1.58,0.14
		c0.649,0,1.121-0.045,1.416-0.135c0.295-0.09,0.526-0.253,0.694-0.491c0.109-0.167,0.181-0.366,0.217-0.597
		c0.035-0.231,0.053-0.623,0.053-1.175v-0.578h1.435v0.578c0,0.7-0.033,1.231-0.101,1.594c-0.067,0.363-0.194,0.682-0.381,0.958
		c-0.27,0.398-0.671,0.684-1.204,0.857c-0.533,0.174-1.281,0.26-2.245,0.26c-0.989,0-1.762-0.08-2.317-0.241
		c-0.556-0.16-0.968-0.424-1.238-0.79c-0.199-0.27-0.334-0.581-0.404-0.934c-0.071-0.353-0.106-0.889-0.106-1.609v-4.45h-2.245
		v-1.233h2.245V22.131z"/>
	<path style="fill:#A7A9AC;" d="M207.857,30.714h1.512c-0.026,1.092-0.411,1.855-1.156,2.288c-0.745,0.434-2.042,0.65-3.892,0.65
		c-1.528,0-2.69-0.059-3.483-0.178c-0.793-0.119-1.392-0.319-1.796-0.602c-0.925-0.655-1.387-1.949-1.387-3.882
		c0-1.355,0.196-2.373,0.588-3.054c0.372-0.648,0.91-1.087,1.614-1.315c0.703-0.228,1.877-0.342,3.521-0.342
		c1.573,0,2.71,0.083,3.41,0.25c0.7,0.167,1.258,0.488,1.676,0.963c0.347,0.398,0.584,0.861,0.713,1.387
		c0.128,0.526,0.199,1.329,0.212,2.408h-10.182c0.039,1.137,0.263,1.917,0.674,2.341c0.276,0.289,0.718,0.486,1.325,0.592
		c0.607,0.106,1.594,0.159,2.962,0.159c1.034,0,1.792-0.048,2.273-0.144c0.482-0.097,0.841-0.273,1.079-0.53
		C207.7,31.507,207.812,31.176,207.857,30.714z M207.79,28.055c-0.006-0.893-0.244-1.516-0.713-1.869
		c-0.308-0.238-0.74-0.403-1.296-0.496c-0.556-0.093-1.37-0.14-2.442-0.14c-0.938,0-1.652,0.043-2.143,0.13
		c-0.491,0.087-0.875,0.239-1.151,0.458c-0.456,0.353-0.719,0.992-0.79,1.917H207.79z"/>
</g>
<g>
</g>
<g>
</g>
<g>
</g>
<g>
</g>
<g>
</g>
<g>
</g>
</svg>
