<?xml version="1.0" encoding="iso-8859-1"?>
<!-- Generator: Adobe Illustrator 18.0.0, SVG Export Plug-In . SVG Version: 6.00 Build 0)  -->
<!DOCTYPE svg PUBLIC "-//W3C//DTD SVG 1.1//EN" "http://www.w3.org/Graphics/SVG/1.1/DTD/svg11.dtd">
<svg version="1.1" id="Layer_1" xmlns="http://www.w3.org/2000/svg" xmlns:xlink="http://www.w3.org/1999/xlink" x="0px" y="0px"
	 viewBox="0 0 666 356.197" style="enable-background:new 0 0 666 356.197;" xml:space="preserve">
<g>
	<path style="fill:#FFFFFF;" d="M359.443,63.589V34.005C359.443,11.222,348.222,0,325.438,0h-4.7h-39.375h-34.133
		c-22.783,0-34.003,11.222-34.003,34.005v170.022c0,22.781,11.221,34.003,34.003,34.003h34.133h39.375h4.7
		c22.784,0,34.005-11.222,34.005-34.003V174.44h-34.005v15.983c0,11.221-5.78,17.003-17.002,17.003h-27.072h-13.73
		c-11.223,0-17.002-5.782-17.002-17.003V47.606c0-11.221,5.78-17.002,17.002-17.002h13.73h27.072
		c11.223,0,17.002,5.782,17.002,17.002v15.983H359.443z"/>
	<path style="fill:#FF7708;" d="M431.192,114.594c13.26-6.46,20.061-17.343,20.061-31.964V37.405
		C451.253,12.582,438.671,0,413.848,0h-66.307c21.613,0,32.8,10.118,33.898,30.604h15.407c11.225,0,17.002,5.782,17.002,17.002
		V82.63c0,11.221-5.777,17.002-17.002,17.002H264.986v30.604h133.561c11.224,0,17.002,5.782,17.002,17v43.187
		c0,11.221-5.778,17.003-17.002,17.003h-17.108c-1.097,20.485-12.284,30.603-33.898,30.603h68.008
		c24.823,0,37.405-12.581,37.405-37.404v-53.388C452.954,130.576,445.813,119.695,431.192,114.594z"/>
	<g>
		<path style="fill:#FFFFFF;" d="M45.297,276.391v-2.877c0-2.02-1.041-3.061-3.061-3.061H9.794c-2.02,0-3.06,1.041-3.06,3.061
			v25.709c0,2.02,1.04,3.061,3.06,3.061h32.442c2.02,0,3.061-1.041,3.061-3.061v-2.877h6.121v5.325c0,4.101-2.02,6.121-6.121,6.121
			H6.121c-4.101,0-6.121-2.02-6.121-6.121v-30.606c0-4.101,2.02-6.121,6.121-6.121h39.175c4.101,0,6.121,2.02,6.121,6.121v5.325
			H45.297z"/>
		<path style="fill:#FFFFFF;" d="M89.182,307.793H62.127c-3.673,0-5.509-1.836-5.509-5.509v-6.244c0-3.551,1.653-5.325,4.897-5.325
			h27.606v-4.101c0-0.979-0.612-1.469-1.836-1.469H64.33c-1.224,0-1.837,0.49-1.837,1.469v0.979h-5.509v-2.081
			c0-3.489,1.836-5.264,5.509-5.264h26.627c3.673,0,5.509,1.775,5.509,5.264v21.301L89.182,307.793z M62.127,297.57v3.489
			c0,1.225,0.612,1.837,1.836,1.837h23.383l1.775-0.368v-6.917H63.963C62.739,295.612,62.127,296.285,62.127,297.57z"/>
		<path style="fill:#FFFFFF;" d="M127.804,287.348v-0.368c0-1.224-0.612-1.836-1.836-1.836h-18.486l-1.836,0.551v22.098h-5.509
			v-25.954l5.326-1.591h22.342c3.244,0,4.897,1.652,4.897,4.897v2.204H127.804z"/>
		<path style="fill:#FFFFFF;" d="M142.492,285.144v15.609c0,1.408,0.735,2.142,2.143,2.142h16.221v4.897h-18.363
			c-3.673,0-5.509-1.836-5.509-5.509v-17.139h-1.836v-4.897h1.836v-9.182h5.509v9.182h17.813v4.897H142.492z"/>
		<path style="fill:#FFFFFF;" d="M164.526,270.453v-5.509h5.509v5.509H164.526z M164.526,307.793v-27.545h5.509v27.545H164.526z"/>
		<path style="fill:#FFFFFF;" d="M181.052,295.55v5.509c0,1.225,0.612,1.837,1.836,1.837h22.097c1.224,0,1.837-0.612,1.837-1.837
			v-0.612h5.509v2.448c0,3.244-1.653,4.897-4.897,4.897H180.44c-3.244,0-4.897-1.653-4.897-4.897v-17.752
			c0-3.244,1.653-4.897,4.897-4.897h26.872c3.244,0,4.897,1.652,4.897,4.897v10.406H181.052z M181.052,286.98v3.673H206.7v-3.673
			c0-1.224-0.612-1.836-1.837-1.836h-21.975C181.665,285.144,181.052,285.757,181.052,286.98z"/>
		<path style="fill:#FFFFFF;" d="M245.199,287.348v-0.368c0-1.224-0.612-1.836-1.837-1.836h-18.486l-1.836,0.551v22.098h-5.509
			v-25.954l5.326-1.591h22.342c3.244,0,4.897,1.652,4.897,4.897v2.204H245.199z"/>
		<path style="fill:#FFFFFF;" d="M331.014,285.573c2.632,0.918,3.918,2.877,3.918,5.877v9.61c0,4.469-2.265,6.734-6.734,6.734
			h-45.97v-42.848h45.664c4.468,0,6.734,2.265,6.734,6.734v8.141C334.625,282.451,333.401,284.41,331.014,285.573z M288.961,282.88
			h35.87c2.02,0,3.061-1.041,3.061-3.061v-6.305c0-2.02-1.041-3.061-3.061-3.061h-35.87V282.88z M288.961,302.284h36.176
			c2.02,0,3.061-1.041,3.061-3.061v-7.774c0-2.02-1.041-3.061-3.061-3.061h-36.176V302.284z"/>
		<path style="fill:#FFFFFF;" d="M371.654,307.793h-26.688c-3.244,0-4.897-1.653-4.897-4.897v-22.648h5.509v20.811
			c0,1.225,0.612,1.837,1.837,1.837h22.525l1.837-0.551v-22.098h5.203v25.954L371.654,307.793z"/>
		<path style="fill:#FFFFFF;" d="M410.153,287.348v-0.368c0-1.224-0.612-1.836-1.836-1.836h-18.486l-1.836,0.551v22.098h-5.509
			v-25.954l5.325-1.591h22.342c3.244,0,4.897,1.652,4.897,4.897v2.204H410.153z"/>
		<path style="fill:#FFFFFF;" d="M424.841,285.144v15.609c0,1.408,0.735,2.142,2.142,2.142h16.221v4.897h-18.363
			c-3.673,0-5.509-1.836-5.509-5.509v-17.139h-1.836v-4.897h1.836v-9.182h5.509v9.182h17.812v4.897H424.841z"/>
		<path style="fill:#FFFFFF;" d="M446.876,270.453v-5.509h5.509v5.509H446.876z M446.876,307.793v-27.545h5.509v27.545H446.876z"/>
		<path style="fill:#FFFFFF;" d="M490.397,307.793V286.98c0-1.224-0.612-1.836-1.836-1.836h-23.322l-1.836,0.551v22.098h-5.509
			v-25.954l5.325-1.591h27.79c3.244,0,4.897,1.652,4.897,4.897v22.648H490.397z"/>
		<path style="fill:#FFFFFF;" d="M575.477,276.391v-2.877c0-2.02-1.041-3.061-3.061-3.061h-33.728c-2.02,0-3.061,1.041-3.061,3.061
			v6.794c0,1.653,0.796,2.51,2.448,2.51h38.012c3.979,0,5.937,1.959,5.937,5.815v13.038c0,4.101-2.02,6.121-6.121,6.121h-41.073
			c-4.101,0-6.121-2.02-6.121-6.121v-5.325h6.733v2.877c0,2.02,1.041,3.061,3.061,3.061h33.728c2.02,0,3.061-1.041,3.061-3.061
			v-8.08c0-1.898-0.918-2.816-2.816-2.816h-38.073c-3.673,0-5.509-1.836-5.509-5.57v-11.692c0-4.101,2.02-6.121,6.121-6.121h40.706
			c4.101,0,6.121,2.02,6.121,6.121v5.325H575.477z"/>
		<path style="fill:#FFFFFF;" d="M587.777,307.793v-5.509h5.509v5.509H587.777z"/>
		<path style="fill:#FFFFFF;" d="M648.436,307.793l-5.509-9.549H610.24l-5.631,9.549h-6.917l25.954-42.848h7.039l25.403,42.848
			H648.436z M639.744,292.735l-12.916-22.342l-13.283,22.342H639.744z"/>
		<path style="fill:#FFFFFF;" d="M660.491,307.793v-5.509H666v5.509H660.491z"/>
	</g>
	<g>
		<path style="fill:#FFFFFF;" d="M117.018,355.958v-27.197h18.769c4.157,0,7.08,0.173,8.767,0.518
			c2.032,0.412,3.58,1.494,4.642,3.248c0.544,0.89,0.93,2.082,1.156,3.576c0.226,1.494,0.339,3.576,0.339,6.246
			c0,3.334-0.299,5.977-0.897,7.93c-0.93,3.002-2.909,4.762-5.937,5.28c-1.567,0.266-4.164,0.398-7.79,0.398H117.018z
			 M120.645,352.771h15.262c2.616,0,4.24-0.017,4.872-0.05c0.63-0.034,1.325-0.143,2.082-0.329c1.474-0.345,2.53-1.308,3.168-2.889
			c0.637-1.581,0.956-4.018,0.956-7.312c0-4.277-0.551-7.093-1.654-8.448c-0.412-0.518-0.956-0.906-1.634-1.166
			c-0.677-0.259-1.601-0.442-2.77-0.548c-0.691-0.053-2.424-0.08-5.2-0.08h-15.083V352.771z"/>
		<path style="fill:#FFFFFF;" d="M174.501,350.12h3.128c-0.053,2.259-0.85,3.836-2.391,4.732c-1.541,0.897-4.224,1.345-8.049,1.345
			c-3.162,0-5.562-0.123-7.203-0.368c-1.641-0.246-2.879-0.661-3.716-1.245c-1.913-1.355-2.869-4.032-2.869-8.029
			c0-2.803,0.405-4.908,1.215-6.316c0.77-1.341,1.883-2.248,3.337-2.72s3.882-0.707,7.282-0.707c3.254,0,5.605,0.173,7.053,0.518
			c1.448,0.345,2.603,1.009,3.467,1.993c0.717,0.823,1.208,1.78,1.474,2.869c0.265,1.089,0.411,2.75,0.438,4.981h-21.06
			c0.08,2.351,0.544,3.965,1.395,4.842c0.571,0.598,1.485,1.006,2.74,1.225c1.255,0.219,3.297,0.329,6.127,0.329
			c2.139,0,3.706-0.099,4.702-0.298c0.996-0.2,1.74-0.565,2.231-1.096C174.175,351.761,174.408,351.077,174.501,350.12z
			 M174.361,344.622c-0.014-1.847-0.505-3.135-1.474-3.866c-0.638-0.491-1.531-0.833-2.68-1.026
			c-1.149-0.192-2.833-0.289-5.051-0.289c-1.94,0-3.417,0.089-4.433,0.269c-1.016,0.179-1.81,0.495-2.381,0.946
			c-0.943,0.73-1.488,2.052-1.634,3.965H174.361z"/>
		<path style="fill:#FFFFFF;" d="M179.881,349.363h3.188c0,0.266,0,0.445,0,0.538c0,1.023,0.11,1.753,0.329,2.192
			c0.219,0.438,0.654,0.776,1.305,1.016c0.863,0.306,3.348,0.458,7.452,0.458c2.564,0,4.347-0.056,5.35-0.169
			c1.003-0.112,1.723-0.335,2.162-0.667c0.598-0.452,0.896-1.149,0.896-2.092c0-1.143-0.359-1.923-1.076-2.341
			c-0.717-0.419-2.026-0.621-3.925-0.607c-0.598,0.013-3.474-0.02-8.627-0.1c-1.342-0.027-2.414-0.133-3.218-0.319
			c-0.804-0.186-1.471-0.485-2.002-0.897c-1.01-0.783-1.514-2.105-1.514-3.965c0-1.965,0.631-3.393,1.893-4.284
			c0.664-0.465,1.754-0.8,3.268-1.006c1.514-0.206,3.692-0.309,6.535-0.309c3.175,0,5.516,0.173,7.024,0.518
			c1.507,0.345,2.613,0.956,3.318,1.833c0.345,0.425,0.567,0.873,0.667,1.345c0.1,0.472,0.15,1.265,0.15,2.381h-3.148
			c-0.013-1.155-0.206-1.912-0.578-2.271c-0.412-0.412-1.209-0.711-2.391-0.897c-1.183-0.186-2.896-0.279-5.141-0.279
			c-4.091,0-6.575,0.286-7.452,0.856c-0.638,0.426-0.956,1.143-0.956,2.152c0,1.036,0.372,1.721,1.116,2.052
			c0.744,0.333,2.245,0.479,4.503,0.439c2.232-0.04,5.121,0.013,8.667,0.159c2.152,0.08,3.703,0.551,4.652,1.415
			c0.949,0.863,1.425,2.231,1.425,4.104c0,1.129-0.166,2.046-0.498,2.75c-0.332,0.705-0.87,1.282-1.614,1.733
			c-0.651,0.398-1.713,0.681-3.188,0.847c-1.474,0.166-3.607,0.249-6.396,0.249c-3.121,0-5.436-0.093-6.944-0.279
			c-1.508-0.186-2.614-0.518-3.317-0.996c-0.717-0.479-1.219-1.056-1.504-1.733c-0.286-0.678-0.428-1.621-0.428-2.829
			C179.861,350.2,179.867,349.869,179.881,349.363z"/>
		<path style="fill:#FFFFFF;" d="M209.727,342.728h-3.108c-0.027-0.345-0.04-0.617-0.04-0.816c0-1.979,0.744-3.328,2.232-4.045
			c1.487-0.718,4.277-1.076,8.368-1.076c3.214,0,5.525,0.147,6.934,0.438c1.408,0.293,2.51,0.851,3.307,1.674
			c0.664,0.665,1.096,1.448,1.295,2.351c0.199,0.903,0.299,2.484,0.299,4.742v9.963h-2.969l0.06-2.211h-0.159
			c-0.744,1.036-1.637,1.703-2.68,2.002c-1.043,0.298-3.012,0.448-5.907,0.448c-3.308,0-5.606-0.08-6.894-0.239
			c-1.288-0.159-2.265-0.491-2.929-0.996c-0.664-0.479-1.126-1.049-1.385-1.714c-0.259-0.664-0.388-1.594-0.388-2.789
			c0-1.461,0.196-2.583,0.588-3.367c0.391-0.783,1.053-1.368,1.982-1.753c1.01-0.438,3.367-0.658,7.073-0.658
			c3.879,0,6.416,0.117,7.611,0.349c1.196,0.233,2.118,0.794,2.77,1.684h0.259v-2.033c0-1.66-0.299-2.856-0.897-3.586
			c-0.531-0.651-1.338-1.092-2.421-1.325c-1.083-0.232-2.853-0.349-5.31-0.349c-3.228,0-5.317,0.189-6.266,0.568
			c-0.95,0.378-1.425,1.205-1.425,2.48C209.727,342.536,209.727,342.622,209.727,342.728z M217.379,347.331
			c-2.457,0-4.178,0.043-5.161,0.13c-0.983,0.087-1.681,0.249-2.092,0.488c-0.784,0.465-1.176,1.322-1.176,2.571
			c0,1.235,0.465,2.072,1.395,2.51c0.757,0.359,3.307,0.538,7.651,0.538c3.175,0,5.273-0.205,6.296-0.618
			c1.023-0.411,1.534-1.248,1.534-2.51c0-1.222-0.571-2.046-1.713-2.471C222.97,347.544,220.726,347.331,217.379,347.331z"/>
		<path style="fill:#FFFFFF;" d="M232.142,337.05h2.989v2.55h0.199c0.465-0.85,1.176-1.521,2.132-2.012
			c0.571-0.292,1.325-0.495,2.261-0.608c0.937-0.113,2.334-0.169,4.194-0.169c1.86,0,3.244,0.103,4.154,0.309
			c0.91,0.205,1.69,0.581,2.341,1.125c1.275,1.103,1.913,2.889,1.913,5.36v1.952h-3.068v-1.355c0-1.049-0.07-1.843-0.209-2.381
			c-0.14-0.537-0.389-0.979-0.747-1.324c-0.757-0.705-2.331-1.056-4.722-1.056c-3.6,0-5.907,0.468-6.924,1.404
			c-1.016,0.937-1.524,3.066-1.524,6.386v8.727h-2.989V337.05z"/>
		<path style="fill:#FFFFFF;" d="M254.358,337.05h2.989v2.55h0.199c0.465-0.85,1.176-1.521,2.132-2.012
			c0.571-0.292,1.325-0.495,2.261-0.608c0.937-0.113,2.334-0.169,4.194-0.169c1.859,0,3.244,0.103,4.154,0.309
			c0.91,0.205,1.69,0.581,2.341,1.125c1.275,1.103,1.913,2.889,1.913,5.36v1.952h-3.068v-1.355c0-1.049-0.07-1.843-0.209-2.381
			c-0.14-0.537-0.389-0.979-0.747-1.324c-0.757-0.705-2.331-1.056-4.722-1.056c-3.6,0-5.907,0.468-6.924,1.404
			c-1.016,0.937-1.524,3.066-1.524,6.386v8.727h-2.989V337.05z"/>
		<path style="fill:#FFFFFF;" d="M287.971,336.811c2.975,0,5.171,0.089,6.585,0.269c1.415,0.179,2.52,0.508,3.317,0.986
			c1.195,0.717,2.059,1.737,2.59,3.059c0.531,1.322,0.797,3.118,0.797,5.389c0,2.524-0.319,4.443-0.956,5.758
			c-0.465,0.997-1.086,1.773-1.863,2.332c-0.776,0.558-1.796,0.963-3.058,1.215c-1.223,0.252-3.255,0.379-6.098,0.379
			c-2.683,0-4.709-0.089-6.077-0.269c-1.368-0.179-2.478-0.501-3.328-0.966c-1.262-0.678-2.165-1.677-2.71-2.999
			c-0.545-1.321-0.817-3.171-0.817-5.549c0-2.657,0.392-4.669,1.176-6.037c0.797-1.408,1.899-2.351,3.307-2.829
			C282.245,337.07,284.624,336.824,287.971,336.811z M288.449,339.441c-1.979,0-3.474,0.073-4.483,0.219
			c-1.01,0.147-1.813,0.412-2.411,0.797c-0.704,0.452-1.215,1.165-1.534,2.142c-0.319,0.976-0.478,2.308-0.478,3.995
			c0,1.912,0.212,3.344,0.638,4.294c0.425,0.95,1.155,1.624,2.192,2.022c1.142,0.439,3.367,0.658,6.674,0.658
			c2.152,0,3.736-0.08,4.752-0.239c1.016-0.159,1.823-0.458,2.421-0.897c0.664-0.465,1.139-1.162,1.424-2.092
			c0.286-0.93,0.428-2.238,0.428-3.925c0-1.993-0.226-3.453-0.677-4.383c-0.505-1.037-1.345-1.727-2.52-2.072
			C293.699,339.614,291.557,339.441,288.449,339.441z"/>
		<path style="fill:#FFFFFF;" d="M304.25,328.761h2.989v27.197h-2.989V328.761z"/>
		<path style="fill:#FFFFFF;" d="M310.785,328.761h2.989v27.197h-2.989V328.761z"/>
		<path style="fill:#FFFFFF;" d="M320.448,342.728h-3.108c-0.027-0.345-0.04-0.617-0.04-0.816c0-1.979,0.744-3.328,2.231-4.045
			c1.488-0.718,4.278-1.076,8.368-1.076c3.214,0,5.526,0.147,6.934,0.438c1.408,0.293,2.511,0.851,3.307,1.674
			c0.664,0.665,1.096,1.448,1.295,2.351s0.299,2.484,0.299,4.742v9.963h-2.969l0.059-2.211h-0.159
			c-0.744,1.036-1.637,1.703-2.68,2.002c-1.043,0.298-3.012,0.448-5.907,0.448c-3.307,0-5.605-0.08-6.894-0.239
			c-1.288-0.159-2.264-0.491-2.929-0.996c-0.665-0.479-1.126-1.049-1.385-1.714c-0.259-0.664-0.389-1.594-0.389-2.789
			c0-1.461,0.196-2.583,0.588-3.367c0.391-0.783,1.053-1.368,1.982-1.753c1.009-0.438,3.367-0.658,7.073-0.658
			c3.878,0,6.416,0.117,7.611,0.349c1.195,0.233,2.118,0.794,2.769,1.684h0.259v-2.033c0-1.66-0.299-2.856-0.897-3.586
			c-0.531-0.651-1.338-1.092-2.42-1.325c-1.083-0.232-2.853-0.349-5.311-0.349c-3.228,0-5.316,0.189-6.266,0.568
			c-0.95,0.378-1.424,1.205-1.424,2.48C320.448,342.536,320.448,342.622,320.448,342.728z M328.099,347.331
			c-2.457,0-4.178,0.043-5.16,0.13c-0.983,0.087-1.68,0.249-2.092,0.488c-0.784,0.465-1.176,1.322-1.176,2.571
			c0,1.235,0.465,2.072,1.394,2.51c0.758,0.359,3.308,0.538,7.651,0.538c3.175,0,5.273-0.205,6.296-0.618
			c1.023-0.411,1.534-1.248,1.534-2.51c0-1.222-0.571-2.046-1.713-2.471C333.691,347.544,331.447,347.331,328.099,347.331z"/>
		<path style="fill:#FFFFFF;" d="M373.747,350.12h3.128c-0.053,2.259-0.85,3.836-2.39,4.732c-1.541,0.897-4.224,1.345-8.05,1.345
			c-3.161,0-5.563-0.123-7.203-0.368c-1.64-0.246-2.879-0.661-3.716-1.245c-1.913-1.355-2.869-4.032-2.869-8.029
			c0-2.803,0.405-4.908,1.216-6.316c0.77-1.341,1.883-2.248,3.337-2.72c1.455-0.472,3.882-0.707,7.282-0.707
			c3.254,0,5.605,0.173,7.054,0.518c1.448,0.345,2.603,1.009,3.467,1.993c0.717,0.823,1.208,1.78,1.474,2.869
			c0.266,1.089,0.412,2.75,0.438,4.981h-21.06c0.08,2.351,0.545,3.965,1.394,4.842c0.571,0.598,1.485,1.006,2.74,1.225
			c1.255,0.219,3.298,0.329,6.127,0.329c2.138,0,3.706-0.099,4.702-0.298c0.997-0.2,1.74-0.565,2.232-1.096
			C373.421,351.761,373.654,351.077,373.747,350.12z M373.607,344.622c-0.013-1.847-0.505-3.135-1.474-3.866
			c-0.637-0.491-1.531-0.833-2.68-1.026c-1.149-0.192-2.833-0.289-5.051-0.289c-1.94,0-3.417,0.089-4.433,0.269
			c-1.016,0.179-1.81,0.495-2.381,0.946c-0.944,0.73-1.488,2.052-1.634,3.965H373.607z"/>
		<path style="fill:#FFFFFF;" d="M390.245,328.761h3.626v27.197h-3.626V328.761z"/>
		<path style="fill:#FFFFFF;" d="M397.537,337.05h2.989v2.849h0.219c0.638-1.208,1.61-2.026,2.919-2.451
			c1.308-0.425,3.517-0.637,6.625-0.637c2.71,0,4.719,0.15,6.027,0.448c1.308,0.299,2.334,0.84,3.079,1.624
			c0.584,0.625,0.992,1.405,1.225,2.341c0.232,0.937,0.349,2.288,0.349,4.055v10.68h-2.989v-9.404c0-1.687-0.07-2.899-0.21-3.637
			c-0.139-0.737-0.421-1.358-0.846-1.863c-0.505-0.584-1.278-0.999-2.321-1.245c-1.043-0.245-2.6-0.368-4.672-0.368
			c-2.311,0-4.111,0.169-5.399,0.508c-1.289,0.338-2.259,0.893-2.909,1.663c-0.452,0.558-0.748,1.185-0.887,1.883
			c-0.14,0.698-0.209,1.936-0.209,3.716v8.747h-2.989V337.05z"/>
		<path style="fill:#FFFFFF;" d="M421.546,337.05h3.487l9.165,16.139h0.319l9.206-16.139h3.606l-10.998,18.908h-3.885
			L421.546,337.05z"/>
		<path style="fill:#FFFFFF;" d="M448.544,328.761h2.989v3.546h-2.989V328.761z M448.544,337.05h2.989v18.908h-2.989V337.05z"/>
		<path style="fill:#FFFFFF;" d="M475.621,350.12h3.128c-0.053,2.259-0.85,3.836-2.39,4.732c-1.541,0.897-4.224,1.345-8.05,1.345
			c-3.161,0-5.563-0.123-7.203-0.368c-1.64-0.246-2.879-0.661-3.716-1.245c-1.913-1.355-2.869-4.032-2.869-8.029
			c0-2.803,0.405-4.908,1.215-6.316c0.77-1.341,1.883-2.248,3.337-2.72s3.882-0.707,7.282-0.707c3.254,0,5.605,0.173,7.054,0.518
			c1.447,0.345,2.603,1.009,3.467,1.993c0.717,0.823,1.208,1.78,1.474,2.869c0.266,1.089,0.412,2.75,0.438,4.981h-21.06
			c0.08,2.351,0.544,3.965,1.394,4.842c0.571,0.598,1.484,1.006,2.74,1.225c1.255,0.219,3.298,0.329,6.127,0.329
			c2.138,0,3.706-0.099,4.702-0.298c0.997-0.2,1.74-0.565,2.232-1.096C475.295,351.761,475.528,351.077,475.621,350.12z
			 M475.481,344.622c-0.013-1.847-0.505-3.135-1.474-3.866c-0.637-0.491-1.531-0.833-2.68-1.026
			c-1.149-0.192-2.833-0.289-5.051-0.289c-1.94,0-3.417,0.089-4.433,0.269c-1.016,0.179-1.81,0.495-2.381,0.946
			c-0.944,0.73-1.488,2.052-1.634,3.965H475.481z"/>
		<path style="fill:#FFFFFF;" d="M481.519,337.05h2.989v2.55h0.199c0.465-0.85,1.176-1.521,2.132-2.012
			c0.571-0.292,1.325-0.495,2.261-0.608c0.937-0.113,2.335-0.169,4.194-0.169c1.86,0,3.244,0.103,4.154,0.309
			c0.909,0.205,1.69,0.581,2.341,1.125c1.276,1.103,1.913,2.889,1.913,5.36v1.952h-3.068v-1.355c0-1.049-0.07-1.843-0.209-2.381
			c-0.14-0.537-0.389-0.979-0.747-1.324c-0.758-0.705-2.332-1.056-4.722-1.056c-3.6,0-5.908,0.468-6.924,1.404
			c-1.016,0.937-1.524,3.066-1.524,6.386v8.727h-2.989V337.05z"/>
		<path style="fill:#FFFFFF;" d="M507.241,332.368h2.989v4.682h13.229v2.55H510.23v8.209c0.026,1.793,0.073,2.889,0.139,3.287
			c0.066,0.398,0.259,0.797,0.578,1.196c0.372,0.465,0.93,0.794,1.673,0.986c0.744,0.193,1.833,0.289,3.268,0.289
			c1.341,0,2.318-0.093,2.929-0.279c0.611-0.186,1.089-0.524,1.435-1.016c0.226-0.345,0.375-0.757,0.448-1.235
			c0.073-0.478,0.11-1.288,0.11-2.431v-1.196h2.968v1.196c0,1.448-0.069,2.547-0.209,3.298c-0.139,0.751-0.402,1.411-0.787,1.982
			c-0.558,0.824-1.388,1.415-2.49,1.773c-1.103,0.359-2.65,0.538-4.642,0.538c-2.046,0-3.644-0.166-4.792-0.498
			c-1.149-0.331-2.002-0.876-2.561-1.633c-0.412-0.558-0.69-1.202-0.837-1.933c-0.146-0.73-0.219-1.84-0.219-3.328V339.6h-4.643
			v-2.55h4.643V332.368z"/>
		<path style="fill:#FFFFFF;" d="M546.931,350.12h3.128c-0.053,2.259-0.85,3.836-2.39,4.732c-1.541,0.897-4.224,1.345-8.05,1.345
			c-3.161,0-5.563-0.123-7.203-0.368c-1.64-0.246-2.879-0.661-3.716-1.245c-1.913-1.355-2.869-4.032-2.869-8.029
			c0-2.803,0.405-4.908,1.216-6.316c0.77-1.341,1.883-2.248,3.337-2.72c1.454-0.472,3.882-0.707,7.282-0.707
			c3.254,0,5.605,0.173,7.054,0.518c1.448,0.345,2.603,1.009,3.467,1.993c0.717,0.823,1.208,1.78,1.474,2.869
			c0.266,1.089,0.412,2.75,0.438,4.981h-21.06c0.08,2.351,0.544,3.965,1.394,4.842c0.571,0.598,1.484,1.006,2.74,1.225
			c1.255,0.219,3.298,0.329,6.127,0.329c2.138,0,3.706-0.099,4.702-0.298c0.997-0.2,1.74-0.565,2.232-1.096
			C546.605,351.761,546.838,351.077,546.931,350.12z M546.791,344.622c-0.013-1.847-0.505-3.135-1.474-3.866
			c-0.637-0.491-1.531-0.833-2.68-1.026c-1.149-0.192-2.833-0.289-5.051-0.289c-1.94,0-3.417,0.089-4.433,0.269
			c-1.016,0.179-1.81,0.495-2.381,0.946c-0.943,0.73-1.488,2.052-1.634,3.965H546.791z"/>
	</g>
</g>
<g>
</g>
<g>
</g>
<g>
</g>
<g>
</g>
<g>
</g>
<g>
</g>
</svg>
